<svg width="170" height="16" viewBox="0 0 170 16" fill="none" xmlns="http://www.w3.org/2000/svg">
<g clip-path="url(#clip0_26496_265299)">
<path d="M4.1269 8.66794C4.5646 8.85994 5.0023 8.57194 5.25241 8.18794C5.50253 7.80394 5.69011 7.80393 5.8777 7.99593C6.19034 8.37993 6.37793 8.18793 6.62805 8.09193C6.87816 7.99593 6.87816 7.80393 7.00322 7.61193C7.06575 7.51593 7.25333 7.51594 7.25333 7.70794C7.25333 7.99594 7.25333 8.18794 7.44092 8.18794C7.81609 8.18794 8.12874 8.09193 8.50391 8.09193C9.00414 8.09193 9.37931 7.80394 9.81701 7.70794C10.2547 7.61194 10.6924 7.80393 11.1301 7.80393C11.2552 7.89993 11.3802 7.80394 11.5053 7.70794C11.8805 7.41994 12.2556 7.61194 12.5683 7.70794C12.9434 7.80394 13.2561 7.70793 13.5687 7.61193C13.8814 7.51593 14.2566 7.70793 14.5692 7.80393C14.6943 7.80393 14.8818 7.61193 15.0694 7.51593C15.3195 7.32393 15.5697 7.32394 15.8823 7.41994C16.32 7.61194 16.8828 7.61194 17.3205 7.41994C17.7582 7.22794 18.2584 7.99593 18.571 7.13193C18.6336 7.03593 18.7586 7.03593 18.7586 7.13193C19.1963 7.61193 19.634 7.41994 20.1343 7.41994C20.572 7.32394 21.0722 7.32394 21.5099 7.22794C21.9476 7.13194 22.4478 6.84393 22.8855 7.13193C23.3232 6.84393 23.8234 7.13193 24.2611 7.13193C24.4487 7.13193 24.6363 7.13193 24.8864 7.03593C25.0115 7.03593 25.1991 6.84394 25.3241 6.93994C26.3246 7.03594 27.2625 6.65193 28.2005 6.84393C28.388 6.84393 28.6382 6.93993 28.7632 6.84393C29.0759 6.45993 29.451 6.84393 29.7637 6.65193C30.0763 6.45993 30.4515 6.55593 30.7641 6.55593C31.0768 6.55593 31.452 6.45993 31.7646 6.65193C31.8271 6.74793 31.8897 6.74793 31.9522 6.65193C32.3899 6.26793 32.8901 6.36393 33.3278 6.17193C33.5779 6.07593 33.7655 6.07593 33.9531 6.17193C34.2657 6.45993 34.5784 6.07593 34.891 6.17193C36.892 6.36393 38.8303 6.17194 40.5186 5.97994H40.8938C41.7067 5.97994 42.5195 5.97993 43.3324 5.88393C43.7701 5.88393 44.1453 5.88394 44.583 5.78794C44.8956 5.59594 45.2708 5.59594 45.5834 5.78794C46.0212 5.97994 46.5214 5.49994 46.9591 5.78794C46.9591 5.88394 47.0841 5.78793 47.1467 5.69193C47.2717 5.49993 47.3968 5.49994 47.5844 5.49994C48.0846 5.49994 48.6474 5.97994 49.1476 5.21194C49.2101 5.11593 49.3352 5.21194 49.3977 5.21194C49.9605 5.59594 50.5857 5.69194 51.1485 5.49994C51.5862 5.30794 51.9614 5.30793 52.3991 5.30793C52.8993 5.30793 53.3995 5.21193 53.8998 5.30793C54.4 5.40393 54.9002 5.11593 55.4005 5.30793C55.5255 5.30793 55.7756 5.21193 55.9007 5.11593C56.0883 4.92393 56.2133 4.92394 56.4009 5.01994C56.8386 5.21194 57.3388 5.21193 57.7766 5.11593C58.1517 5.01993 58.5269 4.92393 58.9021 4.92393C59.0897 4.92393 59.2772 4.73193 59.4648 4.82793C59.84 5.11593 60.2777 4.92393 60.6529 4.92393C61.0906 5.01993 61.5908 5.11593 61.966 4.92393C62.4662 4.82793 62.9039 4.92394 63.4041 5.01994C63.9669 5.01994 64.5922 4.53993 65.1549 4.82793C66.343 4.63593 67.4685 4.63593 68.6566 4.63593C69.0943 4.63593 69.5319 4.73194 69.9696 4.53994C70.3448 4.44394 70.7825 4.44393 71.1577 4.44393C71.783 4.44393 72.4083 4.44393 72.971 4.34793C73.3462 4.34793 73.6588 4.34793 73.9715 3.96393C73.9715 3.96393 74.0965 3.86793 74.0965 3.96393C74.3467 4.53993 74.6593 4.15593 74.972 4.15593C75.4722 4.34793 76.0349 4.34793 76.5352 4.34793C77.2855 4.34793 77.9733 3.96394 78.6611 4.25194C78.7237 4.25194 78.7862 4.15593 78.8487 4.15593C79.1614 4.15593 79.474 4.05994 79.7867 4.05994C80.6621 4.05994 81.6 4.15594 82.4754 3.77194C82.7255 3.67594 82.9756 3.77193 83.1632 3.86793C83.6009 4.05993 83.9761 4.05993 84.4138 3.86793C84.5388 3.86793 84.6639 3.86793 84.789 3.96393C85.1016 4.05993 85.4768 3.86793 85.7894 3.96393C86.2271 4.05993 86.6023 3.48393 87.04 3.86793H88.6657H88.8533C88.9784 3.86793 89.166 3.77193 89.3536 3.67593C89.4786 3.57993 89.6662 3.57993 89.7913 3.67593C90.0414 3.86793 90.354 3.77194 90.6041 3.77194C90.7917 3.77194 90.9793 3.57993 91.1044 3.67593C91.4795 3.77193 91.8547 3.77193 92.2299 3.67593C92.6051 3.57993 92.9802 3.77194 93.4179 3.57994C93.7931 3.48394 94.2308 3.57993 94.606 3.48393C95.0437 3.96393 95.4814 3.38793 95.9191 3.48393C95.9816 3.48393 96.1067 3.48394 96.1692 3.57994C96.4193 3.77194 96.6694 3.77194 96.857 3.57994C97.0446 3.38794 97.2947 3.38793 97.4823 3.48393C97.8575 3.48393 98.2952 3.48393 98.6703 3.38793C99.2956 3.38793 99.8584 3.57994 100.421 3.29194C100.796 3.57994 101.234 3.38793 101.609 3.38793C101.859 3.48393 102.047 3.29193 102.234 3.00393C102.297 2.90793 102.422 2.81193 102.485 3.00393C102.547 3.29193 102.672 3.38793 102.86 3.38793C103.172 3.38793 103.423 3.48394 103.673 3.29194C103.798 3.19594 103.923 3.19593 104.11 3.19593C104.548 3.48393 104.986 3.38794 105.486 3.29194C105.861 3.29194 106.299 3.57993 106.674 3.19593C106.737 3.09993 106.862 3.19594 106.924 3.29194C107.299 3.38794 108.362 3.29193 108.737 3.19593L109.363 3.09993C109.863 3.19593 110.363 3.09993 110.863 3.09993C111.864 3.19593 112.802 3.00394 113.802 3.29194H114.177C114.365 3.19594 114.553 3.09993 114.678 3.19593C115.24 3.29193 115.803 3.19593 116.303 3.19593C116.554 3.09993 116.804 3.19594 116.991 3.29194C117.179 3.38794 117.366 3.38794 117.491 3.29194C118.617 3.00394 119.743 3.09993 120.868 3.19593C121.181 3.48393 121.556 3.09994 121.931 3.29194C122.306 2.81194 122.681 3.19593 123.119 3.19593C123.432 3.19593 123.744 3.38793 124.057 3.09993C124.12 3.00393 124.307 3.00393 124.37 3.09993C124.87 3.48393 125.433 3.38794 125.933 3.29194C126.621 3.00394 127.246 3.48394 127.934 3.29194C128.309 3.48394 128.747 3.38793 129.122 3.38793C130.497 3.38793 131.873 3.48393 133.186 3.38793C133.624 3.38793 133.999 3.67593 134.437 3.67593C134.812 3.67593 135.187 3.38793 135.625 3.67593C136.063 3.86793 136.438 3.48394 136.875 3.57994C137.251 3.67594 137.563 3.67593 137.876 3.67593C138.126 3.77193 138.376 3.77193 138.626 3.67593C139.126 3.48393 139.689 3.96394 140.189 3.57994C140.252 3.48394 140.314 3.57994 140.377 3.57994C140.752 3.86794 141.127 3.77194 141.503 3.77194C142.003 3.77194 142.566 3.57994 143.128 3.77194C143.629 3.96394 144.129 3.86794 144.691 3.77194C144.879 3.77194 145.067 3.77193 145.192 3.86793C145.817 4.25193 146.505 3.96393 147.193 3.96393C147.443 3.96393 147.63 3.67593 147.88 3.86793C148.131 4.15593 148.443 3.77194 148.631 4.05994C149.256 4.05994 149.881 4.63593 150.569 4.15593C150.569 4.05993 150.694 4.15593 150.757 4.15593C151.257 4.53993 151.82 4.34793 152.32 4.44393C152.82 4.44393 153.258 4.34794 153.758 4.53994C154.008 4.63594 154.383 4.73194 154.696 4.25194H154.759C154.946 4.82794 155.384 4.44393 155.634 4.63593C155.759 4.73193 155.947 4.92393 156.134 4.82793C156.447 4.73193 156.76 4.92393 157.135 4.82793C157.51 4.82793 157.823 4.92393 158.198 4.92393C158.823 5.01993 159.448 5.01994 160.136 5.01994C160.386 5.01994 160.636 4.92393 160.824 5.11593C161.262 5.40393 161.699 5.30793 162.137 5.30793C162.325 5.40393 162.512 5.30793 162.7 5.40393C163.137 5.59593 163.513 5.59593 163.95 5.69193L166.577 5.97994C167.077 6.07594 167.577 6.26793 168.015 6.84393C168.14 7.03593 168.265 7.13193 168.39 7.13193C168.828 7.22793 169.265 7.13193 169.64 6.84393C169.766 6.74793 169.891 6.65193 169.891 6.36393C170.078 5.69193 169.953 5.30794 169.515 5.01994L169.078 4.73194L167.389 4.15593C166.702 3.96393 166.014 3.96394 165.388 3.77194C164.888 3.57994 164.388 3.48393 163.888 3.48393L162.387 3.19593C161.824 3.19593 161.324 3.19593 160.761 3.00393C160.511 3.00393 160.261 3.00393 160.011 3.19593C159.761 3.38793 159.636 3.29193 159.448 3.00393C159.261 2.71593 158.886 2.90794 158.573 2.81194C158.135 2.61994 157.76 2.52393 157.322 2.71593C157.26 2.71593 157.135 2.81193 157.072 2.71593C156.572 2.42793 155.947 2.61993 155.384 2.42793C154.696 2.23593 154.071 2.23593 153.383 2.23593C152.695 2.23593 151.945 1.94793 151.257 2.23593C151.194 2.23593 151.069 2.23593 150.944 2.13993C150.507 1.85193 149.944 1.94794 149.444 1.85194C148.943 1.75594 148.381 1.85193 147.88 1.75593C147.318 1.56393 146.817 1.65993 146.317 1.65993H145.754C145.379 1.65993 144.942 1.75594 144.566 1.37194L144.504 1.46793C143.941 1.65993 143.441 1.46794 142.878 1.56394C142.503 1.56394 142.128 1.65994 141.753 1.37194C141.628 1.27594 141.503 1.27593 141.377 1.27593C140.502 1.37193 139.627 1.17994 138.751 1.08394C138.564 0.987936 138.439 1.08393 138.251 1.17993C138.126 1.17993 138.126 1.46794 137.938 1.37194C137.563 1.17994 137.188 1.08394 136.75 1.08394C136.313 1.08394 135.875 0.987932 135.437 0.987932H132.936C132.686 0.987932 132.436 0.795928 132.248 0.891928C131.936 1.08393 131.686 0.699934 131.435 0.795935C131.123 0.795935 130.873 0.891928 130.56 0.891928C130.435 0.987928 130.372 0.987928 130.247 0.891928C129.622 0.603928 128.997 0.69993 128.309 0.69993C125.495 0.60393 122.619 0.603937 119.805 0.603937C119.492 0.603937 119.18 0.507933 118.867 0.507933C118.617 0.411933 118.304 0.603937 117.992 0.603937C117.742 0.699937 117.491 0.507937 117.179 0.603937C116.804 0.699937 116.428 0.699937 116.053 0.603937C115.741 0.507937 115.428 0.699933 115.053 0.507933C114.74 0.315933 114.428 0.507937 114.115 0.603937H113.99C113.49 0.219937 112.989 0.699937 112.489 0.603937C112.177 0.603937 111.864 0.507933 111.614 0.507933C111.301 0.507933 110.988 0.699937 110.676 0.603937C109.8 0.603937 108.925 0.79593 108.05 0.69993C107.8 0.98793 107.424 0.603934 107.174 0.795935C106.862 0.987934 106.611 0.69993 106.299 0.69993H105.799H102.735C102.172 0.69993 101.547 0.699934 100.984 0.795935C100.609 0.891934 100.234 0.891928 99.9209 0.891928C99.4832 0.987928 99.0455 0.891928 98.6078 0.891928C98.1701 0.891928 97.7324 0.891932 97.2947 0.987932C96.857 1.08393 96.4193 0.891934 95.9816 1.27593C95.9191 1.27593 95.794 1.17993 95.669 1.17993C95.5439 1.08393 95.3563 0.987936 95.1687 1.08394C94.731 1.08394 94.2308 0.987929 93.7931 1.17993C93.3554 1.46793 92.9802 0.795937 92.6051 1.08394C92.2299 1.37194 91.8547 1.46794 91.4795 1.37194C91.0418 1.37194 90.6667 1.17993 90.229 1.27593C89.8538 1.46793 89.4786 1.17993 89.0409 1.27593C88.7283 1.37193 88.4782 1.27593 88.1655 1.27593C87.9154 1.27593 87.7278 1.37193 87.6028 1.65993C87.5402 1.85193 87.4152 1.75593 87.3526 1.65993C87.2276 1.56393 87.1651 1.37194 87.04 1.37194C86.6648 1.46794 86.2897 1.75593 85.9145 1.46793C85.5393 1.65993 85.1016 1.46793 84.7264 1.46793C84.4138 1.46793 84.1011 1.65993 83.726 1.65993C83.6634 1.65993 83.6009 1.75593 83.5384 1.94793C83.5384 2.13993 83.4759 2.23594 83.4133 2.33194C83.4133 2.23594 83.3508 2.13994 83.3508 2.04394C83.3508 1.85194 83.2257 1.65993 83.1007 1.65993H79.0363C78.7237 1.75593 78.3485 1.94793 78.0359 1.75593C77.6607 1.56393 77.4106 1.94793 77.0354 1.94793C76.2851 1.85193 75.4722 1.94793 74.7218 1.94793C74.3467 1.94793 74.034 1.94794 73.6588 2.04394C73.2837 2.23594 72.7834 2.33193 72.3457 2.13993C71.6579 1.94793 70.9701 2.04393 70.2823 2.23593H69.1568C68.7191 2.23593 68.2814 2.23594 67.8437 2.33194C67.406 2.33194 67.0308 2.13994 66.5931 2.33194C66.1554 2.71594 65.7802 2.13994 65.3425 2.33194H64.8423C64.4046 2.61994 64.0294 2.52394 63.5917 2.52394C63.0915 2.52394 62.5913 2.52393 62.091 2.61993C61.8409 2.61993 61.6533 2.71593 61.4032 2.61993C61.0906 2.61993 60.7154 2.61993 60.4028 2.71593C60.0276 2.81193 59.6524 2.81194 59.2772 2.81194C58.9646 2.81194 58.652 2.90793 58.2768 3.09993C57.9641 2.90793 57.589 2.81193 57.2138 2.90793C56.8386 2.90793 56.4634 2.81193 56.0883 3.09993C56.0257 3.19593 55.8382 3.09993 55.7131 3.09993C55.588 3.00393 55.463 2.90793 55.3379 3.00393C54.9002 3.19593 54.4 3.09993 53.9623 3.19593H53.1494H52.3366C52.0239 3.19593 51.7738 3.38794 51.5237 3.29194C51.211 3.19594 50.9609 3.48393 50.7108 3.38793C50.4607 3.29193 50.2106 3.48393 49.9605 3.48393H48.8349C48.4598 3.48393 48.0846 3.67593 47.7094 3.48393C47.2717 3.38793 46.8966 3.67593 46.5839 3.86793C46.2713 4.05993 46.0212 4.63593 45.771 3.86793C45.7085 3.86793 45.646 3.77194 45.5834 3.77194C44.8956 3.86794 44.2078 3.57994 43.5825 4.05994C43.1448 3.96394 42.7071 4.53993 42.332 3.86793H42.0193C41.7692 4.05993 41.394 3.96393 41.1439 4.15593C40.8313 4.34793 40.5812 4.05994 40.2685 4.05994C39.7683 4.15594 39.268 4.05994 38.7678 4.25194C38.3926 4.15594 38.0175 4.15593 37.6423 4.15593C37.2671 4.15593 36.9545 4.63594 36.5793 4.25194C36.5168 4.15594 36.3917 4.34793 36.2667 4.34793C36.0791 4.53993 35.954 4.53994 35.7039 4.53994C35.2662 4.44394 34.8285 4.53994 34.3908 4.53994C33.9531 4.53994 33.4529 4.44393 33.0152 4.44393C32.9526 4.44393 32.8276 4.44394 32.7651 4.53994C32.4524 4.73194 32.0772 4.63593 31.7021 4.63593C30.9517 4.73193 30.2639 4.73194 29.5761 4.73194C29.3885 4.73194 29.2009 4.82793 29.1384 5.11593C29.0133 5.30793 29.0133 5.11594 28.9508 5.01994C28.8883 4.92394 28.8257 4.82793 28.7632 4.82793C28.5131 4.82793 28.3255 4.92394 28.0754 5.01994C27.8253 5.11594 27.5752 5.30793 27.3876 4.82793C27.1375 5.01993 26.8248 5.21194 26.5747 5.21194C26.3246 5.21194 26.0745 5.01994 25.8244 5.01994C25.6993 5.11594 25.5743 5.01993 25.5117 5.11593C24.949 5.40393 24.4487 5.30793 23.886 5.30793C23.3857 5.40393 22.8855 5.49994 22.3853 5.49994C21.8225 5.49994 21.3223 5.49993 20.8221 5.59593C20.572 5.69193 20.3844 5.69193 20.1968 5.69193C20.0092 5.69193 19.7591 5.59593 19.5715 5.69193C19.3214 5.78793 19.1338 5.69193 18.9462 5.69193C18.6336 5.78793 18.3834 5.69193 18.1333 5.69193C17.8832 5.69193 17.5706 5.59594 17.3205 5.78794C16.7577 5.97994 16.2575 6.07594 15.6947 5.97994C15.257 5.88394 14.7568 6.26793 14.3191 6.07593C14.2566 5.97993 14.1315 6.07593 14.1315 6.17193C13.8814 6.45993 13.6938 6.45994 13.3811 6.26794C13.131 6.17194 12.8184 6.26793 12.5057 6.07593C12.3182 5.97993 12.1306 6.07594 12.068 6.26794C12.0055 6.45994 11.8805 6.55594 11.8179 6.45994C11.5678 6.26794 11.3802 6.26793 11.1926 6.36393C10.9425 6.55593 10.6924 6.65194 10.4423 6.45994C10.3172 6.36394 10.2547 6.45994 10.1297 6.45994C9.69195 6.65194 9.25425 6.55593 8.81655 6.55593C8.50391 6.55593 8.19126 6.55593 7.87862 6.65193C7.62851 6.84393 7.31586 6.93994 7.00322 6.93994C6.7531 6.84394 6.50299 6.84393 6.25287 7.13193C5.94023 6.74793 5.62759 7.22793 5.37747 7.13193C4.87724 7.03593 4.50207 7.13193 4.1269 7.61193C3.93931 7.80393 3.81425 7.51593 3.68919 7.51593C3.68919 8.28393 3.75172 8.47594 4.1269 8.66794ZM1.37563 8.95594C1.7508 8.76394 2.25103 8.76393 2.56368 8.28393C2.62621 8.18793 2.75126 8.18793 2.75126 8.37993C2.75126 8.76393 2.87632 8.76394 3.00138 8.66794C3.18897 8.47594 3.25149 8.18793 3.31402 7.89993C3.31402 7.51593 3.50161 7.61193 3.68919 7.51593C3.62667 7.51593 3.56414 7.32393 3.56414 7.32393C3.18897 7.13193 3.00138 7.61194 2.75126 7.70794C2.43862 7.80394 2.12598 7.32393 1.7508 7.61193L1.50069 7.89993C1.37563 7.99593 1.3131 8.18793 1.18805 8.09193C0.812873 7.80393 0.500229 8.37993 0.187586 7.99593C0.0625284 7.89993 0 8.09193 0 8.28393L0.0625284 8.66794C0.125057 8.66794 0.250115 8.57193 0.250115 8.57193C0.562758 9.14793 0.937931 9.14794 1.37563 8.95594ZM39.268 15.0039C39.7683 15.1959 40.2685 14.8119 40.7062 14.5239C40.8313 14.1399 40.8938 14.3319 41.0188 14.5239C41.394 14.4279 41.7067 14.5239 42.0193 14.6199C42.3945 14.8119 42.7697 14.7159 43.1448 14.6199C43.3949 14.6199 43.6451 14.2359 43.8952 14.2359C44.1453 14.2359 44.4579 14.5239 44.7706 14.6199C44.8956 14.7159 45.0207 14.6199 45.1457 14.6199C45.3333 14.6199 45.5209 14.6199 45.5834 14.4279C45.8336 13.9479 45.9586 14.6199 46.0837 14.5239C46.2087 14.5239 46.2713 14.5239 46.3963 14.4279C46.5839 14.3319 46.7715 14.2359 46.834 13.8519C46.8966 13.6599 46.9591 13.5639 47.1467 13.6599C47.3968 13.7559 47.5844 13.7559 47.897 14.0439C48.0846 14.2359 48.3347 14.1399 48.5848 14.1399C48.8975 14.0439 48.7724 13.7559 48.7724 13.4679C48.7724 13.4679 48.7724 13.2759 48.8349 13.2759C48.8975 13.2759 49.0225 13.2759 49.0225 13.3719C49.0851 13.8519 49.2726 14.0439 49.6478 14.0439H51.7738H52.8368C53.212 14.0439 53.5871 14.1399 53.9623 13.9479C54.2749 13.8519 54.5876 13.9479 54.9002 13.8519H55.7756C56.0883 13.7559 56.4009 13.8519 56.7136 13.5639C56.8386 13.4679 56.9637 13.5639 57.0887 13.6599C57.3388 13.8519 57.589 13.5639 57.8391 13.6599C58.0892 13.0839 58.4018 13.3719 58.652 13.4679C58.8395 13.5639 59.0271 13.7559 59.1522 13.6599C59.7149 13.5639 60.2152 13.7559 60.7779 13.7559C60.9655 13.7559 61.1531 13.7559 61.3407 13.6599C61.7784 13.4679 62.1536 13.4679 62.5913 13.4679C62.8414 13.4679 63.2166 13.4679 63.4667 13.5639C63.7793 13.7559 64.0294 13.3719 64.3421 13.4679C64.7172 13.4679 65.0299 13.4679 65.3425 13.5639H65.6552C66.468 13.3719 67.2809 13.4679 68.0938 13.4679H69.0943C69.4694 13.3719 69.9071 13.4679 70.2198 13.2759C70.5949 13.1799 70.9076 13.5639 71.2202 13.3719C71.4078 13.1799 71.5954 13.3719 71.783 13.4679C72.0331 13.4679 72.2207 13.1799 72.4708 13.3719C72.5959 13.3719 72.6584 13.2759 72.7834 13.3719C73.3462 13.4679 73.909 13.3719 74.4717 13.2759C74.7844 13.2759 75.097 13.1799 75.4096 13.2759C75.5972 13.3719 75.8474 13.4679 76.0975 13.2759C76.7228 13.4679 77.348 13.0839 77.9733 13.3719C78.0984 13.4679 78.286 13.3719 78.4736 13.2759C78.8487 13.0839 79.1614 13.0839 79.5365 13.2759C79.5991 13.3719 79.7241 13.3719 79.8492 13.2759C80.2869 13.0839 80.7871 13.0839 81.2248 13.3719C81.3499 13.3719 81.5375 13.3719 81.7251 13.2759C81.9752 13.1799 82.2253 12.9879 82.4754 12.9879C82.788 13.0839 83.1007 13.2759 83.3508 13.2759C83.5384 13.3719 83.726 13.3719 83.9136 13.3719C84.6639 13.1799 85.4143 13.3719 86.1646 13.0839C86.2897 13.0839 86.4147 13.1799 86.5398 13.1799C86.9775 13.1799 87.4152 13.1799 87.7903 13.2759C88.228 13.4679 88.5407 13.0839 88.9784 13.1799H89.7913C89.9163 13.1799 90.1039 13.1799 90.2915 13.0839C90.354 13.0839 90.4165 12.9879 90.4791 12.7959C90.6041 12.6039 90.6667 12.6999 90.6667 12.8919C90.7917 13.0839 90.9168 13.1799 91.0418 13.0839C91.4795 12.8919 91.8547 13.1799 92.2924 13.2759C92.48 13.2759 92.6676 13.4679 92.7926 13.3719C93.1678 13.2759 93.543 13.2759 93.9182 13.3719C94.1683 13.4679 94.4809 13.4679 94.7936 13.3719C95.4814 13.1799 96.1067 13.0839 96.7945 13.2759C96.857 13.2759 96.9195 13.3719 96.9821 13.2759C97.4823 13.0839 97.92 13.1799 98.4202 13.1799C98.7329 13.1799 99.0455 13.0839 99.2956 12.9879C99.6083 12.9879 99.9209 13.1799 100.234 13.1799C100.484 13.1799 100.734 13.0839 100.984 12.8919C101.234 12.7959 101.422 12.7959 101.672 12.8919C102.234 13.2759 102.797 13.4679 103.36 13.1799C103.485 13.0839 103.673 13.1799 103.86 13.1799C104.423 13.0839 104.923 13.0839 105.486 13.0839C105.549 12.9879 105.674 12.8919 105.736 12.9879C105.986 13.2759 106.299 13.1799 106.549 12.9879C106.799 12.8919 106.987 12.7959 107.237 12.9879C107.362 13.0839 107.549 13.1799 107.737 13.1799C108.675 12.9879 109.613 13.3719 110.551 12.9879C110.613 12.8919 110.738 12.9879 110.863 12.9879C111.051 12.9879 111.239 13.0839 111.426 13.0839C111.739 13.0839 112.051 12.9879 112.364 12.9879C112.677 12.9879 112.927 13.0839 113.24 13.0839C113.49 13.1799 113.74 12.9879 113.927 13.0839C114.428 13.1799 114.928 13.0839 115.366 13.0839C115.803 13.0839 116.241 13.1799 116.679 12.9879C117.116 12.7959 117.554 13.2759 117.992 13.0839H118.367C118.805 12.8919 119.242 13.1799 119.68 13.0839C120.118 12.9879 120.618 12.9879 121.056 12.9879C121.368 13.0839 121.618 12.9879 121.869 12.9879C122.556 13.1799 123.244 12.5079 123.932 13.0839H124.182C124.307 12.9879 124.432 12.7959 124.62 12.8919C124.807 13.0839 124.995 13.0839 125.183 12.7959C125.308 12.6039 125.37 13.0839 125.558 12.9879C125.933 12.8919 126.308 13.0839 126.683 12.8919C126.808 12.7959 126.996 12.7959 127.183 12.8919C127.871 13.0839 128.559 12.8919 129.247 12.8919C129.56 12.7959 129.872 12.7959 130.185 12.7959C130.623 12.7959 131.123 12.7959 131.623 12.8919C132.123 12.9879 132.623 12.7959 133.124 12.7959C133.624 12.8919 134.187 12.8919 134.749 12.7959C135.125 12.7959 135.5 12.4119 135.875 12.7959C136.875 12.6999 137.813 13.0839 138.814 12.8919C139.064 12.7959 139.377 12.7959 139.627 12.9879C139.752 13.0839 139.877 12.8919 140.002 12.7959C140.002 12.7959 140.064 12.7959 140.064 12.6999L140.002 12.6039L139.689 12.4119C139.689 12.3159 139.627 12.2199 139.689 12.1239C139.689 12.0279 139.752 11.9319 139.814 11.9319C140.002 11.8359 140.127 11.9319 140.252 12.1239C140.377 12.3159 140.44 12.5079 140.502 12.6999C140.565 12.7959 140.69 12.7959 140.752 12.6039C140.752 12.5079 140.815 12.4119 140.815 12.3159C140.877 12.1239 140.877 11.9319 141.065 12.2199C141.19 12.5079 141.503 12.3159 141.503 12.7959C141.503 12.9879 141.565 12.9879 141.628 12.8919C141.753 12.5079 141.94 12.5079 142.253 12.6999C143.066 13.0839 143.879 13.2759 144.691 12.9879C144.817 12.8919 144.879 12.9879 145.004 13.0839C145.192 13.0839 145.317 13.0839 145.504 13.1799C145.817 13.1799 146.13 12.8919 146.505 13.0839C146.817 13.2759 147.13 13.1799 147.505 13.2759C147.568 13.2759 147.693 13.3719 147.818 13.2759C148.193 12.9879 148.693 13.1799 149.131 13.1799C149.319 13.0839 149.506 13.2759 149.694 13.1799C150.006 12.8919 150.257 12.9879 150.569 13.2759C150.819 13.4679 151.069 13.2759 151.32 13.0839C151.445 12.8919 151.445 12.6039 151.445 12.3159C151.382 12.1239 151.32 11.9319 151.132 11.9319C150.569 12.0279 150.006 11.7399 149.444 11.9319H149.194C148.568 11.5479 147.943 11.7399 147.38 11.6439C147.068 11.6439 146.755 11.6439 146.505 12.0279C146.38 12.2199 146.38 11.9319 146.38 11.7399C146.317 11.6439 146.317 11.4519 146.192 11.4519C145.817 11.7399 145.504 11.8359 145.129 11.4519C144.879 11.6439 144.566 11.2599 144.254 11.6439C144.066 11.8359 143.941 11.7399 143.754 11.4519C143.566 11.0679 143.191 11.2599 142.878 11.2599C142.315 11.4519 141.753 11.3559 141.19 11.1639C141.065 11.0679 140.94 11.0679 140.815 11.0679C140.627 10.9719 140.502 11.1639 140.377 11.3559C140.314 11.5479 140.127 11.6439 140.064 11.4519C139.814 11.0679 139.502 11.0679 139.189 11.0679C137.688 11.0679 136.125 11.0679 134.624 10.9719C134.374 10.9719 134.124 11.1639 133.937 11.1639C132.999 10.8759 132.061 10.9719 131.123 10.9719H129.247C128.622 10.9719 128.059 10.8759 127.434 10.9719C126.808 11.0679 126.246 10.8759 125.62 10.9719H124.182C123.682 10.9719 123.244 10.7799 122.744 10.9719C122.369 11.0679 122.056 10.8759 121.681 10.8759C121.306 10.7799 120.993 11.0679 120.618 10.9719C120.305 10.8759 119.993 10.8759 119.68 10.9719C119.43 11.0679 119.18 11.0679 118.93 11.0679C118.117 10.9719 117.304 10.9719 116.491 10.9719C116.178 10.9719 115.928 10.9719 115.678 11.1639C115.366 10.9719 115.053 10.9719 114.74 10.9719C114.24 10.9719 113.677 10.8759 113.177 10.9719C112.552 11.1639 111.989 10.7799 111.426 10.9719H111.364H108.8C107.737 11.0679 106.611 10.7799 105.549 11.1639H105.361C104.986 11.0679 104.611 11.0679 104.235 11.0679C103.86 11.0679 103.485 11.2599 103.172 11.0679C102.797 10.9719 102.422 11.1639 102.047 11.0679C101.734 10.9719 101.734 11.4519 101.609 11.7399C101.234 11.0679 101.234 11.0679 100.671 10.9719C100.234 10.9719 99.8584 11.1639 99.4207 11.0679C99.2956 10.9719 99.108 11.0679 98.983 11.1639C98.7329 11.4519 98.4202 11.5479 98.1701 11.2599C97.8575 11.4519 97.5448 11.4519 97.2947 11.3559C96.9821 11.1639 96.732 10.9719 96.4193 11.2599C96.1067 10.9719 95.7315 11.3559 95.4188 11.1639C94.8561 10.9719 94.2933 11.2599 93.7306 11.2599C93.4805 11.2599 93.1678 11.6439 92.9177 11.0679C92.6051 11.0679 92.2299 10.9719 91.9172 11.0679C91.417 11.3559 90.9168 11.2599 90.4165 11.0679C90.229 10.9719 89.9163 10.8759 89.7287 11.1639C89.5411 11.5479 89.3536 11.6439 89.166 11.2599C88.9159 10.9719 88.6657 10.9719 88.3531 11.0679C87.9779 11.0679 87.6028 11.1639 87.1651 11.2599C86.9149 11.2599 86.7273 11.3559 86.4772 11.1639C85.977 10.8759 85.4143 10.9719 84.8515 11.0679C84.2887 11.2599 83.726 10.9719 83.1632 11.2599C83.1007 11.3559 82.9756 11.2599 82.9131 11.1639C82.5379 10.9719 82.1628 11.0679 81.7876 11.0679C81.0998 11.0679 80.3494 11.1639 79.6616 11.1639C79.2864 11.1639 78.8487 11.0679 78.4736 11.1639C78.0984 11.2599 77.6607 11.2599 77.2855 11.2599C76.8478 11.1639 76.4101 11.2599 75.9724 11.2599C75.7223 11.2599 75.5347 11.4519 75.2846 11.4519C75.0345 11.4519 74.7844 11.3559 74.5343 11.1639H74.0965C73.7839 11.2599 73.4713 11.2599 73.0961 11.2599C71.9706 11.3559 70.8451 11.2599 69.7195 11.2599C69.4694 11.2599 69.1568 11.3559 68.8441 11.4519C68.469 11.6439 68.0313 11.6439 67.6561 11.5479C67.2809 11.3559 66.9057 11.4519 66.5306 11.3559C66.0929 11.2599 65.6552 11.5479 65.2175 11.3559C65.0924 11.3559 64.9674 11.5479 64.8423 11.5479C64.6547 11.5479 64.4046 11.6439 64.217 11.5479C63.8418 11.2599 63.4667 11.6439 63.154 11.4519C62.4662 11.7399 61.7784 11.5479 61.0906 11.6439C60.7154 11.6439 60.4028 11.7399 60.0276 11.7399C59.5274 11.7399 59.0897 11.6439 58.5894 11.8359C58.1517 11.5479 57.714 11.7399 57.2138 11.9319H56.7136C55.7131 11.8359 54.7126 12.2199 53.7122 12.3159C53.5246 12.3159 53.2745 12.4119 53.1494 12.4119C52.6492 12.2199 52.149 12.3159 51.7113 12.3159C51.2736 12.2199 50.8984 12.3159 50.8359 13.1799C50.8359 13.2759 50.7108 13.4679 50.6483 13.6599C50.5857 13.5639 50.5232 13.4679 50.5232 13.3719C50.4607 13.1799 50.0855 13.0839 50.3982 12.6999C50.4607 12.6999 50.5232 12.6999 50.3982 12.6039H50.3356C49.8979 12.6039 49.4602 12.3159 49.0225 12.4119C48.7724 12.5079 48.5223 12.5079 48.2097 12.5079C47.5218 12.6039 46.8966 12.6039 46.2087 12.6999C45.4584 12.7959 44.7706 13.1799 44.0202 12.8919C43.8952 12.8919 43.7701 12.9879 43.6451 12.9879C43.0823 13.1799 42.5821 13.3719 42.0193 13.1799C41.8317 13.1799 41.6441 13.1799 41.5816 13.4679C41.394 13.8519 41.2064 14.1399 40.8938 13.5639C40.5186 13.4679 40.0809 13.3719 39.7057 13.6599C39.5182 13.8519 39.3931 13.9479 39.2055 13.9479C39.0179 13.9479 38.8929 14.4279 38.9554 14.7159C38.9554 14.9079 39.143 14.9079 39.268 15.0039ZM32.0147 15.8679C32.3899 15.8679 32.7651 15.6759 33.0152 15.3879C33.2653 15.0999 33.4529 15.1959 33.6405 15.4839C33.828 15.6759 33.828 15.0999 34.0156 15.1959L34.7034 15.3879C35.0161 15.4839 35.0161 15.3879 35.0786 15.0039C35.0786 14.8119 35.0161 14.5239 34.9536 14.6199C34.891 14.6199 34.891 14.7159 34.8285 14.8119C34.766 14.9079 34.7034 15.0039 34.6409 15.0039C34.5784 15.0039 34.4533 15.0039 34.5159 14.7159C34.5784 14.5239 34.5159 14.4279 34.3908 14.5239C33.9531 14.8119 33.5154 14.8119 33.0152 14.5239C32.8901 14.4279 32.64 14.4279 32.5775 14.6199C32.3899 15.0039 32.0147 15.0039 31.8897 15.4839C31.8271 15.4839 31.8271 15.6759 31.8271 15.7719C31.8897 15.7719 31.9522 15.8679 32.0147 15.8679ZM27.4501 16.2519H28.8257C29.1384 16.2519 29.3885 15.9639 29.6386 15.6759C29.7011 15.5799 29.6386 15.3879 29.5761 15.2919C29.451 15.0999 29.326 15.0999 29.2009 15.0999C28.8883 15.0999 28.5756 15.1959 28.388 15.5799C28.263 15.7719 28.1379 15.7719 27.9503 15.7719L27.4501 16.2519Z" fill="#181D27"/>
</g>
<defs>
<clipPath id="clip0_26496_265299">
<rect width="170" height="16" fill="white"/>
</clipPath>
</defs>
</svg>
