<svg width="50" height="52" viewBox="0 0 50 52" fill="none" xmlns="http://www.w3.org/2000/svg">
<g clip-path="url(#clip0_26496_266064)">
<path fill-rule="evenodd" clip-rule="evenodd" d="M20.7971 10.096C20.6565 9.26166 20.5505 8.43675 20.4821 7.61175C20.379 6.37425 20.4427 5.12729 20.4062 3.88979C20.3902 3.36479 20.3274 1.99606 20.3527 1.79918C20.5824 0.0835555 21.9671 -0.178976 22.3721 -0.225851C22.568 -0.253976 24.5799 -0.478876 25.014 1.75237C25.5465 4.4805 25.7171 7.22734 25.5287 9.91796C25.9683 12.2055 26.7202 14.4835 27.713 16.546C31.6637 24.7492 39.1918 25.5461 47.348 25.4711C48.6024 25.4523 49.644 26.4367 49.7096 27.6835C49.7752 28.9398 48.8415 30.0273 47.5927 30.1398C43.0337 30.5804 34.9449 34.2367 32.1483 38.043C31.5633 38.8398 31.223 40.7617 30.773 42.6461C30.1449 45.2617 29.3977 47.8492 28.5605 48.9367C28.4349 49.1055 26.9077 50.8305 26.4521 51.0836C25.3571 51.6836 24.4805 51.3367 23.9827 51.0179C23.4849 50.6992 22.9215 50.0711 22.6965 49.0304C22.4612 47.9429 22.6599 45.7116 22.6233 45.2335C22.4902 43.4991 22.1434 40.096 21.4356 37.171C21.054 35.596 20.6471 34.1429 19.974 33.421C17.4821 30.7492 13.4977 31.143 10.1424 31.5836C9.7571 31.6304 9.37179 31.6867 8.98742 31.7336C7.62148 32.1367 6.17113 32.4367 4.63832 32.6148C2.32363 32.8867 1.94303 30.7585 1.92241 30.6179C1.87928 30.3085 1.71895 28.7148 3.46364 28.0773C3.65395 28.0117 5.05834 27.7023 5.59928 27.5804C6.35303 27.4117 7.1152 27.2805 7.8802 27.1586C15.7824 24.7024 20.0743 17.8023 20.7971 10.096ZM23.5093 18.618C26.4924 24.7867 31.0196 27.7679 36.3858 29.1179C33.0352 30.8711 29.9864 33.0649 28.3711 35.268C27.758 36.1024 27.1955 37.7804 26.6883 39.6648C26.4137 37.9117 26.0424 36.046 25.5521 34.4523C24.9943 32.6335 24.2433 31.1242 23.4052 30.2242C21.7871 28.4899 19.7564 27.5242 17.573 27.0461C20.1868 24.7305 22.1687 21.843 23.5093 18.618Z" fill="#181D27"/>
</g>
<defs>
<clipPath id="clip0_26496_266064">
<rect width="50" height="52" fill="white"/>
</clipPath>
</defs>
</svg>
