<svg width="802" height="800" viewBox="0 0 802 800" fill="none" xmlns="http://www.w3.org/2000/svg">
<path fill-rule="evenodd" clip-rule="evenodd" d="M294.222 291.836C294.176 281.517 275.973 269.913 268.197 263.93C252.822 252.097 236.831 241.17 220.989 230.069C205.146 218.967 189.261 207.896 174.154 195.708C164.345 187.796 152.82 178.885 146.167 167.588C131.996 143.513 176.678 147.088 188.252 146.561C217.695 145.216 251.468 145.83 279.067 133.293C295.542 125.809 302.112 113.257 298.573 94.9625C297.433 89.0129 294.057 82.1666 296.917 76.3705C299.97 70.1802 306.996 66.6081 312.828 64.2126C334.096 55.4854 358.55 54.4742 381.054 53.3788C405.319 52.1751 429.813 52.5272 453.908 52.4339C464.124 52.3948 474.794 48.5217 484.523 45.3739C497.278 41.248 509.881 36.6136 522.53 32.1326C550.357 22.2979 579.031 11.9396 608.472 9.44184C626.909 7.87696 647.06 9.99256 661.383 23.604C668.574 30.4383 672.338 40.598 676.496 49.6231C681.528 60.5261 686.362 71.5344 691.719 82.2659C708.979 116.829 733.621 150.603 773.618 152.3C779.669 152.556 785.611 151.722 791.633 151.566C795.468 151.47 798.882 152.448 800.307 156.682C803.892 167.302 792.626 184.067 788.006 192.494C777.892 210.938 766.487 228.555 755.802 246.629C748.734 258.583 736.498 274.918 736.37 289.441C736.256 302.381 752.566 311.734 761.445 318.108C769.766 324.076 784.841 332.427 785.754 344.567C786.196 350.453 782.517 355.331 778.676 359.117C771.944 365.738 764.188 370.408 758.132 377.962C748.2 390.355 739.903 407.406 741.251 424.105C742.187 435.676 748.443 443.253 756.401 450.497C759.746 453.543 762.46 455.697 762.637 460.642C762.922 468.493 760.008 476.802 757.607 484.082C749.019 510.134 736.82 535.326 723.25 558.847C716.47 570.602 709.144 582.32 700.154 592.347C694.266 598.932 686.324 606.768 677.342 606.759C666.943 606.759 655.94 602.799 645.831 599.838C626.952 594.303 608.301 587.905 589.724 581.342C546.762 566.157 504.205 549.741 462.051 532.096C432.359 519.647 402.037 507.179 374.122 490.627C368.678 487.377 363.539 483.587 358.775 479.309C353.686 474.816 347.37 472.806 340.965 471.307C301.217 462.005 257.67 469.146 217.755 473.624C207.624 474.759 197.493 475.899 187.333 476.694C178.6 477.377 168.143 479.336 159.655 476.393C142.928 470.6 157.55 449.248 163.732 440.548C185.497 409.915 213.578 383.999 239.606 357.54C251.981 344.94 264.45 332.373 276.152 319.059C282.246 312.138 294.262 300.883 294.222 291.836Z" stroke="#181D27"/>
<path fill-rule="evenodd" clip-rule="evenodd" d="M301.723 290.097C295.051 279.178 283.347 271.107 273.631 263.512C259.649 252.577 245.228 242.251 231.024 231.626C217.594 221.579 204.134 211.418 191.696 200.009C184.112 193.051 174.596 184.731 171.003 174.44C163.211 152.135 205.133 155.519 215.482 154.936C241.211 153.492 270.381 153.161 294.184 141.418C309.047 134.084 315.153 121.923 311.983 105.038C310.888 99.1967 308.913 94.2093 311.413 88.3978C314.303 81.6718 320.951 77.4785 327.046 74.5186C346.138 65.2448 368.706 63.2745 389.401 61.6351C410.782 59.9416 433.058 58.7474 453.751 59.9867C462.025 60.48 471.55 57.6795 479.739 55.5318C492.34 52.2229 504.812 48.4057 517.35 44.8562C542.83 37.6369 568.973 30.6823 595.481 29.8911C614.619 29.3196 634.572 32.4179 650.494 44.393C666.63 56.5365 673.789 75.3609 682.737 93.2558C698.191 124.194 719.064 161.809 754.816 168.346C760.238 169.338 765.448 168.8 770.864 169.044C773.649 169.167 776.819 169.558 778.231 172.455C781.898 179.975 771.851 193.725 768.47 199.485C759.128 215.404 748.625 230.543 738.835 246.155C731.059 258.551 721.204 272.325 718.196 287.02C714.547 304.851 738.392 317.539 746.779 330.095C761.316 351.867 733.773 364.272 720.194 374.653C704.6 386.571 691.728 408.313 705.707 426.753C711.054 433.804 717.634 438.006 720.022 447.207C723.757 461.598 720.933 478.043 717.902 492.268C713.337 513.652 706.112 534.805 696.291 554.132C689.254 567.969 677.581 589.666 660.487 588.038C648.979 586.953 637.28 582.985 626.075 579.478C609.297 574.228 592.73 568.245 576.252 562.031C538.214 547.725 500.595 531.95 463.715 514.6C438.551 502.757 368.358 454.361 363.076 452.634C347.328 447.49 329.423 448.396 313.187 449.193C291.59 450.252 270.101 452.995 248.63 455.537C238.409 456.74 228.137 458.211 217.862 458.803C210.549 459.225 200.944 459.586 194.538 455.101C182.035 446.35 195.965 426.329 201.726 417.858C219.374 391.889 241.699 369.401 262.631 346.408C272.903 335.118 283.333 323.847 292.657 311.652C296.418 306.728 305.846 296.841 301.723 290.097Z" stroke="#181D27"/>
<path fill-rule="evenodd" clip-rule="evenodd" d="M310.952 284.497C292.733 262.646 267.587 246.395 245.885 228.146C234.992 218.984 224.031 209.572 214.636 198.659C209.749 192.984 203.646 185.808 202.705 177.897C200.189 156.736 237.973 159.597 249.282 158.794C271.147 157.235 295.848 156.053 315.685 145.254C327.804 138.652 333.773 127.817 331.508 113.576C330.503 107.258 328.94 101.89 331.508 95.6853C334.109 89.3997 339.53 84.9646 345.019 81.6398C360.793 72.0775 380.396 69.0204 398.156 66.7427C418.99 64.0897 439.98 63.0539 460.958 63.6435C479.331 64.1521 497.616 58.4321 515.555 54.662C539.32 49.6702 563.516 45.3103 587.835 45.9693C607.041 46.4928 626.398 50.606 642.817 61.5373C659.501 72.6702 669.532 89.3335 678.576 107.315C692.247 134.497 709.285 170.923 739.278 181.246C743.641 182.751 747.706 182.916 752.205 183.178C754.391 183.304 757.212 183.343 758.296 185.748C760.904 191.537 751.264 202.76 748.573 206.671C739.986 219.158 730.677 231.083 721.875 243.404C713.659 254.907 704.709 266.895 699.605 280.374C691.483 301.843 717.45 314.396 716.723 334.853C716.269 347.554 704.74 356.662 695.611 362.963C684.37 370.71 668.185 375.805 662.559 389.943C658.368 400.474 664.944 406.604 670.008 414.595C678.59 428.135 679.175 446.49 678.282 462.163C677.078 483.342 672.374 504.835 664.365 524.303C660.736 533.128 656.291 542.308 649.747 549.162C643.616 555.586 637.813 557.232 629.619 555.917C604.536 551.885 579.21 540.647 555.157 530.609C524.935 517.996 495.131 504.071 466.216 488.403C446.499 477.719 426.337 466.414 409.031 451.653C404.521 447.804 399.902 443.622 396.604 438.546C394.11 434.731 393.052 431.58 388.849 429.402C376.393 422.948 359.067 424.636 345.721 425.307C324.381 426.375 303.143 429.218 281.935 431.779C269.558 433.283 246.244 438.016 236.361 426.664C227.831 416.861 238.124 400.146 243.382 391.511C256.683 369.672 273.792 350.506 289.666 330.77C296.941 321.726 304.501 312.612 310.51 302.556C312.045 299.992 314.504 296.595 314.926 293.481C315.4 289.913 313.189 287.189 310.952 284.497Z" stroke="#181D27"/>
<path fill-rule="evenodd" clip-rule="evenodd" d="M312.518 289.583C295.683 270.263 275.401 254.391 257.328 236.312C249.224 228.206 241.041 219.702 234.866 209.813C231.545 204.496 228.018 197.802 228.934 191.192C231.562 172.221 262.638 173.935 275.193 172.824C293.848 171.192 315.28 169.547 331.775 159.318C342.581 152.618 346.633 142.723 344.616 129.962C342.45 116.273 347.292 106.336 358.312 98.6996C372.128 89.133 389.568 85.2334 405.61 82.4631C424.937 79.1414 444.509 77.6689 464.087 78.0637C483.128 78.4492 501.575 75.0826 520.49 72.8935C545.568 69.9937 571.451 68.5633 596.247 74.5075C617.836 79.6838 637.336 91.0902 651.954 108.73C667.223 127.14 674.781 150.336 687.179 170.704C694.912 183.408 705.695 200.214 720.144 205.152C724.964 206.799 733.746 204.577 729.897 212.68C727.697 217.314 723.58 221.379 720.327 225.168C715.071 231.289 709.641 237.242 704.297 243.28C692.906 256.15 680.708 269.294 672.17 284.534C661.413 303.721 677.403 318.488 675.455 337.943C674.407 348.413 667.508 356.77 660.209 363.334C655.487 367.586 650.319 371.269 645.043 374.704C639.533 378.294 633.013 381.028 628.208 385.668C621.36 392.272 624.333 400.089 625.617 408.626C627.877 423.628 628.374 438.868 627.095 453.999C625.532 472.545 621.865 491.621 614.141 508.475C611.136 515.036 607.33 521.992 601.677 526.391C596.025 530.791 590.178 530.489 583.701 529.165C564.489 525.25 545.317 516.141 527.093 507.508C504.283 496.701 481.921 484.623 460.566 470.883C445.825 461.397 431.036 451.15 418.704 438.289C415.117 434.546 411.705 430.538 408.945 426.064C407.051 422.995 406.035 419.035 403.29 416.729C394.701 409.529 377.458 411.679 367.386 412.098C347.284 412.932 327.498 416.897 307.422 417.861C296.465 418.388 279.305 419.713 271.258 409.869C263.691 400.616 270.545 386.042 275.067 377.125C283.956 359.594 295.897 343.975 306.6 327.678C311 320.972 315.822 313.956 318.673 306.299C321.206 299.475 316.832 294.537 312.518 289.583Z" stroke="#181D27"/>
<path fill-rule="evenodd" clip-rule="evenodd" d="M316.659 289.899C303.259 272.898 287.104 257.807 273.607 240.529C265.707 230.411 252.102 213.401 258.211 199.136C264.914 183.461 288.279 183.034 301.785 181.771C317.859 180.268 336.736 178.214 350.493 168.427C354.843 165.333 358.55 161.237 360.121 155.843C361.803 150.07 359.964 145.018 359.724 139.239C359.223 127.115 366.082 117.382 375.16 110.697C387.99 101.247 404.033 96.7783 419.187 93.6632C436.355 90.1496 453.808 88.4174 471.296 88.4913C488.009 88.5514 504.545 88.1606 521.276 87.7095C543.155 87.1081 565.342 88.0794 586.566 94.2104C607.473 100.254 626.481 111.581 641.412 128.243C655.978 144.501 665.806 164.373 674.413 184.616C679.297 196.105 687.548 213.275 699.198 219.078C704.378 221.661 709.462 221.483 703.953 228.201C697.017 236.659 687.668 243.446 679.634 250.68C668.044 261.12 656.163 271.765 646.436 284.177C640.223 292.103 637.455 299.795 637.882 310.058C638.213 317.875 639.713 325.612 638.954 333.46C637.178 351.88 623.427 364.512 611.27 376.275C603.45 383.841 596.308 389.611 592.282 400.373C587.521 413.092 585.522 426.93 582.34 440.136C578.845 454.638 574.808 469.724 567.178 482.497C560.387 493.869 552.127 498.969 539.765 495.905C520.483 491.13 501.478 479.367 484.36 468.485C466.937 457.414 449.813 444.965 435.375 429.747C427.58 421.529 422.26 411.88 415.338 403.052C406.631 391.968 386.932 396.166 375.226 397.104C355.793 398.662 294.645 410.317 300.288 372.568C302.643 356.812 311.917 342.27 318.7 328.367C321.511 322.596 325.58 315.671 326.216 309.059C326.908 301.858 320.687 295.017 316.659 289.899Z" stroke="#181D27"/>
<path fill-rule="evenodd" clip-rule="evenodd" d="M323.734 291.343C313.494 275.937 301.238 261.382 292.452 244.742C286.752 233.966 281.154 219.567 288.507 208.165C296.807 195.298 315.107 192.298 328.553 190.659C342.407 188.971 358.945 187.551 370.269 177.794C373.871 174.687 376.841 170.496 377.394 165.478C377.927 160.664 376.422 155.851 376.921 150.95C378.038 139.945 384.362 130.877 392.516 124.301C416.635 104.845 452.534 100.519 481.636 100.011C496.202 99.7579 511.193 101.085 525.854 102.035C544.877 103.269 563.93 105.916 582.073 112.297C620.648 125.859 646.503 155.938 664.561 193.366C670.244 205.147 674.593 217.894 683.499 227.362C688.09 232.251 687.087 235.762 682.393 240.22C675.054 247.188 666.103 252.513 657.957 258.328C646.372 266.598 634.539 274.992 624.293 284.899C617.231 291.728 612.217 298.308 610.695 308.548C609.61 315.85 609.863 323.29 609.211 330.637C607.968 344.593 603.713 358.444 596.18 370.02C590.195 379.196 583.07 387.536 575.706 395.487C566.133 405.839 558.036 416.357 550.765 428.643C541.127 444.907 527.583 474.907 504.88 466.968C479.84 458.207 456.37 435.948 440.305 414.38C434.91 407.139 430.481 398.258 423.205 392.918C412.312 384.936 401.26 385.216 388.303 385.249C368.906 385.294 326.698 389.738 326.242 359.076C326.062 346.927 331.044 335.441 333.429 323.756C336.12 310.669 330.728 301.842 323.734 291.343Z" stroke="#181D27"/>
<path fill-rule="evenodd" clip-rule="evenodd" d="M331.361 292.716C321.232 272.637 298.519 239.642 315.794 217.314C324.919 205.514 341.059 201.08 354.598 198.437C365.494 196.299 378.634 195.497 386.867 186.436C392.918 179.774 390.232 170.078 392.55 161.738C395.427 151.399 402.032 142.94 410.147 136.581C432.826 118.811 464.359 113.357 491.64 112.197C519.973 110.994 551.192 116.619 577.855 127.439C611.098 140.934 636.004 166.488 653.422 198.849C656.635 204.822 659.555 210.952 662.641 216.998C664.714 221.054 667.788 224.977 669.422 229.243C672.142 236.356 668.937 242.171 663.799 246.806C656.407 253.48 647.328 258.23 638.901 263.239C627.378 270.094 615.598 276.825 604.879 284.867C597.676 290.278 590.136 296.108 587.559 305.497C585.799 311.9 585.434 318.682 585.497 325.314C585.634 339.535 584.927 351.034 578.636 364.057C568.285 385.439 552.367 404.664 535.551 420.661C522.354 433.216 501.472 452.718 482.244 444.324C464.992 436.808 454.9 418.818 443.534 404.274C438.007 397.203 431.799 390.745 424.505 385.715C415.309 379.375 406.651 376.714 395.755 375.677C377.417 373.93 349.765 373.476 344.096 350.267C342.003 341.702 343.198 332.83 342.1 324.154C340.665 312.682 336.471 302.845 331.361 292.716Z" stroke="#181D27"/>
<path fill-rule="evenodd" clip-rule="evenodd" d="M341.893 293.46C334.68 271.489 325.205 243.8 342.625 224.273C351.063 214.814 362.932 209.526 374.42 205.574C382.647 202.742 395.71 201.908 400.754 193.201C404.458 186.793 404.971 177.954 408.323 171.089C412.928 161.65 419.904 153.876 428.088 147.791C449.41 131.932 477.181 125.805 502.506 124.05C557.534 120.243 613.526 150.566 642.972 200.454C651.752 215.325 663.086 231.153 648.897 246.346C633.406 262.921 610.069 270.686 591.58 282.463C584.516 286.959 575.513 292.365 571.572 300.506C569.201 305.4 569.039 311.54 568.931 316.927C568.646 330.648 567.566 342.988 562.336 355.791C554.26 375.577 541.382 393.831 526.789 408.783C514.062 421.821 495.912 437.144 477.429 427.744C463.257 420.521 454.269 405.19 443.258 393.888C431.004 381.302 415.849 372.82 399.206 368.676C383.017 364.655 365.261 361.943 356.728 344.86C353.802 339 350.744 331.413 349.647 324.927C347.876 314.233 345.282 303.709 341.893 293.46Z" stroke="#181D27"/>
<path fill-rule="evenodd" clip-rule="evenodd" d="M353.636 293.615C350.3 271.429 349.929 248.295 365.432 230.81C372.667 222.652 381.814 216.857 391.063 211.606C397.867 207.742 404.895 204.483 409.977 198.149C414.685 192.285 418.264 185.475 422.81 179.457C428.807 171.482 435.982 164.578 444.06 159.01C464.309 145.081 488.941 138.567 512.507 136.307C523.915 135.209 536.289 134.637 547.62 137.631C558.563 140.52 569.383 145.087 579.445 150.413C600.835 161.724 619.372 178.289 632.811 199.233C642.025 213.598 647.008 227.566 635.075 242.139C621.623 258.565 600.53 267.629 583.144 278.29C571.22 285.602 557.856 292.769 555.629 308.308C553.855 320.673 552.414 332.408 547.826 344.095C540.996 361.334 530.955 376.95 518.297 390.017C506.72 401.92 492.076 412.022 475.517 405.664C462.398 400.617 452.22 389.312 440.758 381.23C427.984 372.203 413.949 367.226 399.171 363.224C385.889 359.613 373.383 354.064 364.799 342.284C363.042 339.876 361.197 337.255 359.842 334.562C358.114 331.126 358.248 327.72 357.909 323.868C357.025 313.704 355.145 303.656 353.636 293.615Z" stroke="#181D27"/>
<path fill-rule="evenodd" clip-rule="evenodd" d="M366.585 291.802C366.87 270.729 371.674 250.813 384.829 234.39C390.454 227.364 397.17 221.578 403.358 215.14C408.341 209.95 413.05 205.128 418.78 200.851C432.372 190.724 443.418 177.62 457.862 168.602C477.144 156.546 499.23 149.883 521.146 147.218C531.847 145.916 542.902 145.461 553.729 146.932C563.027 148.195 571.933 152.628 580.194 157.164C596.385 166.049 612.106 178.678 622.619 194.654C645.798 229.878 600.1 255.487 576.645 270.484C565.858 277.383 549.376 285.373 544.957 299.038C541.799 308.8 539.874 318.728 535.807 328.189C524.88 353.596 502.7 383.479 473.141 379.501C460.493 377.801 448.965 370.896 437.158 366.261C425 361.486 412.452 358.825 399.815 355.905C388.005 353.177 378.592 349.295 370.964 338.888C367.318 333.918 367.64 327.969 367.315 321.872C366.785 311.856 366.457 301.784 366.585 291.802Z" stroke="#181D27"/>
<path fill-rule="evenodd" clip-rule="evenodd" d="M378.376 289.103C383.125 257.294 400.761 222.569 426.693 204.096C457.197 182.366 490.244 164.068 526.69 158.808C543.587 156.369 562.097 155.169 578.041 163.145C590.175 169.211 604.27 178.279 610.948 191.031C627.286 222.223 590.946 247.054 570.242 261.484C559.095 269.253 544.906 276.823 536.504 288.167C531.63 294.745 529.141 303.446 525.206 310.67C513.28 332.562 493.649 350.22 469.195 353.378C457.888 354.836 446.499 353.032 435.277 351.597C423.791 350.129 412.162 349.332 400.747 347.284C391.634 345.648 380.896 342.878 377.54 332.589C373.307 319.624 376.438 302.092 378.376 289.103Z" stroke="#181D27"/>
<path fill-rule="evenodd" clip-rule="evenodd" d="M389.938 283.992C396.863 254.087 411.529 224.917 436.183 207.064C449.257 197.597 464.434 191.062 479.005 184.606C495.522 177.288 512.779 171.608 530.404 168.791C552.35 165.281 587.892 162.118 599.358 188.501C610.738 214.689 581.981 237.866 564.975 251.074C554.073 259.536 542.404 267.302 531.987 276.552C526.339 281.566 521.987 287.361 517.207 293.242C503.996 309.539 485.162 322.44 465.965 329.327C447.36 336.004 424.343 338.959 404.703 336.753C396.229 335.805 390.172 332.605 387.609 323.509C384.058 310.863 387.075 296.346 389.938 283.992Z" stroke="#181D27"/>
<path fill-rule="evenodd" clip-rule="evenodd" d="M401.427 275.938C408.307 249.608 423.146 225.558 444.792 209.755C469.056 192.04 500.3 182.196 529.017 177.19C544.281 174.531 577.359 167.322 585.14 187.954C592.92 208.586 570.428 228.919 557.483 240.111C541.771 253.675 524.832 266.772 507.912 278.942C493.212 289.523 477.526 300.341 461.604 308.512C452.623 313.148 443.269 316.933 433.65 319.822C426.528 321.944 417.471 325.109 410.005 323.53C391.171 319.54 398.136 288.528 401.427 275.938Z" stroke="#181D27"/>
<path fill-rule="evenodd" clip-rule="evenodd" d="M415.608 268.054C430.704 218.26 478.531 193.77 524.581 185.234C535.282 183.253 565.28 176.109 571.261 191.32C577.057 206.068 558.624 223.558 549.993 231.844C523.251 257.521 490.212 276.559 458.904 295.42C449.132 301.307 431.507 314.083 419.385 308.19C406.223 301.78 412.481 278.379 415.608 268.054Z" stroke="#181D27"/>
<path fill-rule="evenodd" clip-rule="evenodd" d="M431.071 258.469C444.199 221.8 482.382 200.769 517.488 193.836C526.087 192.139 547.925 186.857 554.437 197.09C560.464 206.556 546.082 220.272 540.701 225.722C528.722 237.859 514.525 247.858 500.5 257.468C487.532 266.359 474.424 275.473 460.779 282.993C453.592 286.951 440.112 295.398 431.945 289.285C423.152 282.71 428.156 266.612 431.071 258.469Z" stroke="#181D27"/>
<path fill-rule="evenodd" clip-rule="evenodd" d="M448.11 247.756C458.116 223.809 484.914 208.259 508.554 203.092C514.915 201.705 528.663 198.105 534.029 204.5C538.969 210.39 531.007 219.024 527.473 223.012C511.813 240.687 488.88 256.474 467.867 266.171C462.584 268.609 453.087 273.394 447.653 268.473C442.078 263.42 445.812 253.254 448.11 247.756Z" stroke="#181D27"/>
<path fill-rule="evenodd" clip-rule="evenodd" d="M466.186 237.697C471.824 225.806 486.56 216.835 498.767 213.979C507.358 211.971 517.684 213.706 510.197 224.056C502.76 234.328 488.96 243.709 477.263 247.868C468.339 251.04 461.345 247.911 466.186 237.697Z" stroke="#181D27"/>
<path fill-rule="evenodd" clip-rule="evenodd" d="M8.9677 320.055C8.60608 296.563 -3.22478 272.148 2.61803 248.211C7.41586 228.551 31.5701 226.91 46.0604 218.003C57.5752 210.927 64.1099 198.392 70.3372 186.365C75.9322 175.567 80.9579 164.445 86.8519 153.824C90.6674 146.958 97.2192 133.476 105.494 133.233C113.415 132.998 120.679 143.504 125.28 149.715C131.28 157.81 136.598 166.441 142.424 174.665C152.242 188.538 164.021 198.807 177.509 208.525C192.859 219.583 208.461 230.264 224.317 240.567C235.992 248.175 247.746 255.726 258.967 264.086C266.006 269.331 281.541 279.173 281.613 288.844C281.647 293.458 277.504 298.568 274.71 302.257C269.984 308.5 264.596 314.209 259.192 319.794C249.127 330.198 238.634 340.13 228.255 350.182C214.784 363.228 201.917 376.061 190.075 390.872C177.831 406.203 166.134 422.038 154.198 437.658C146.114 448.239 138.039 460.122 126.379 466.615C111.775 474.731 99.7876 466.173 85.0182 466.074C72.3132 465.987 73.25 434.916 71.6356 426.277C70.0154 417.532 66.4448 409.392 65.061 400.626C63.3355 389.684 63.3127 378.49 62.8884 367.431C62.373 353.903 62.168 341.026 48.4693 335.867C40.6732 332.936 32.2393 332.32 24.1698 330.565C18.942 329.425 9.08159 327.477 8.9677 320.055Z" stroke="#181D27"/>
<path fill-rule="evenodd" clip-rule="evenodd" d="M15.2137 315.876C13.8819 296.184 6.01414 270.979 13.4542 250.652C19.8106 233.28 39.6897 231.029 53.0756 221.903C64.1259 214.377 69.045 202.061 74.5688 189.961C79.0003 180.255 83.2978 170.455 88.3282 161.059C92.0354 154.135 97.696 142.445 105.404 141.012C112.334 139.723 119.765 150.044 123.655 155.294C129.33 162.959 134.183 171.283 139.197 179.433C148.005 193.748 157.025 206.622 169.918 217.138C182.867 227.699 197.035 235.596 211.353 243.815C222.554 250.245 233.699 256.862 244.341 264.287C252.269 269.814 263.667 276.889 267.295 286.746C270.166 294.543 255.603 307.483 251.308 312.05C242.468 321.44 233.1 330.255 223.715 339.015C212.274 349.691 200.468 359.027 190.364 371.205C172.293 392.977 157.188 420.091 133.935 436.273C119.911 446.033 104.303 448.529 88.7046 447.069C82.5278 446.491 81.045 437.287 80.2665 431.919C78.9718 423.002 78.8092 413.931 77.814 404.978C76.8815 396.596 74.8112 388.633 73.1429 380.414C71.4547 372.087 70.9813 363.555 69.738 355.17C68.968 349.965 68.2066 343.908 64.8388 339.723C61.354 335.391 55.605 333.575 50.5803 332.196C41.1441 329.631 16.1547 329.773 15.2137 315.876Z" stroke="#181D27"/>
<path fill-rule="evenodd" clip-rule="evenodd" d="M23.2527 307.633C21.013 289.556 17.8774 267.043 27.0017 250.389C34.4597 236.772 50.3658 233.834 61.7269 224.961C71.1764 217.583 74.7457 205.848 79.4362 194.943C83.2851 185.998 87.1539 177.014 91.8187 168.502C95.3566 162.047 99.9159 153.295 106.94 151.043C112.946 149.118 119.731 157.739 123.06 162.029C128.729 169.341 133.351 177.534 137.942 185.619C145.452 198.849 152.362 212.98 163.05 223.741C173.435 234.183 185.772 240.346 198.34 247.277C207.966 252.587 217.533 258.101 226.603 264.433C233.567 269.292 242.198 275.049 245.827 283.134C248.965 290.107 240.908 298.36 236.882 303.279C230.235 311.397 222.856 318.844 215.581 326.322C207.729 334.389 199.033 341.83 191.435 350.096C175.458 367.489 162.693 386.747 143.001 400.072C130.247 408.704 113.086 416.546 98.01 415.136C87.1681 414.119 87.8814 388.797 86.84 380.706C85.1282 367.477 81.8214 353.577 76.5688 341.391C72.0581 330.949 61.3389 327.729 51.4786 325.387C45.3016 323.917 38.8279 323.123 32.8534 320.85C25.9375 318.216 24.1914 315.209 23.2527 307.633Z" stroke="#181D27"/>
<path fill-rule="evenodd" clip-rule="evenodd" d="M30.7512 299.16C29.4176 283.877 29.7175 265.806 38.3555 252.586C45.9255 241.007 59.4036 237.958 68.9896 228.836C76.4711 221.72 79.4095 210.116 83.4329 200.705C88.3501 189.198 95.2405 167.945 107.645 163.615C119.184 159.589 131.252 185.305 135.429 192.973C142.043 205.11 147.574 218.421 155.595 229.629C162.503 239.279 171.757 244.613 181.58 250.345C194.105 257.667 213.12 266.349 219.816 280.618C224.807 291.25 208.577 307.057 203.034 314.424C197.237 322.12 192.871 331.241 186.889 338.665C177.448 350.381 162.151 359.813 149.521 367.011C137.243 374.013 121.297 381.763 107.368 381.301C98.2131 381 96.4713 366.079 94.5181 358.791C91.7197 348.43 87.9989 339.145 80.0063 332.098C71.8709 324.924 62.282 321.544 52.2019 318.585C47.0277 317.078 41.1253 315.902 36.4965 312.856C31.3823 309.542 31.2652 305.034 30.7512 299.16Z" stroke="#181D27"/>
<path fill-rule="evenodd" clip-rule="evenodd" d="M39.888 290.351C39.962 277.148 42.8225 263.069 51.3044 252.885C58.3688 244.402 69.4266 241.566 76.1893 232.895C81.546 226.029 84.2728 216.391 87.8591 208.418C92.2452 198.648 98.4472 181.58 109.354 178.19C119.999 174.889 129.415 193.688 133.496 201.127C139.473 212.034 144.312 223.596 150.343 234.473C155.068 243.007 160.846 248.507 168.54 254.007C177.571 260.467 190.171 267.624 194.996 278.312C198.474 286.051 190.055 298.417 186.998 305.234C184.948 309.813 183.073 314.464 182.042 319.427C181.24 323.292 181.16 326.869 178.835 330.188C172.98 338.535 160.143 339.625 151.433 342.376C139.866 346.028 127.593 350.178 115.488 350.97C108.048 351.465 104.251 344.231 100.004 339.141C94.9861 333.125 87.8818 328.798 81.677 324.258C73.4882 318.257 64.5765 314.524 55.3575 310.701C51.199 308.976 46.3148 307.284 43.0929 303.854C39.7286 300.298 39.8623 295.116 39.888 290.351Z" stroke="#181D27"/>
<path fill-rule="evenodd" clip-rule="evenodd" d="M49.4835 282.513C50.9536 271.425 55.5351 260.827 63.2735 252.988C69.2055 246.97 77.0835 243.581 81.8444 236.35C86.2806 229.61 89.372 221.946 93.036 214.739C96.9137 207.12 102.675 194.385 111.618 192.312C121.257 190.079 128.682 202.925 132.793 210.045C137.987 219.042 141.934 228.722 146.578 238.029C150.076 244.966 154.539 251.311 159.818 256.851C165.354 262.692 172.861 268.286 175.662 276.317C178.138 283.431 173.505 292.037 172.688 299.25C171.813 306.956 173.346 315.051 168.496 321.668C158.496 335.314 133.397 332.784 119.049 333.075C104.891 333.376 93.509 325.026 82.0524 317.082C74.485 311.837 66.6042 307.396 58.8459 302.509C50.9366 297.523 48.1899 292.272 49.4835 282.513Z" stroke="#181D27"/>
<path fill-rule="evenodd" clip-rule="evenodd" d="M58.3991 276.166C62.7467 260.102 76.3255 251.564 86.0329 239.424C93.9755 229.486 99.931 208.904 113.307 206.181C128.494 203.091 137.586 230.362 142.866 240.885C148.724 252.555 159.159 262.048 163.498 274.401C165.778 280.886 163.82 286.936 162.605 293.417C161.274 300.534 160.273 307.81 155.678 313.538C146.632 324.811 128.965 324.732 116.241 325.043C103.07 325.365 91.4182 317.64 80.924 309.93C69.7941 301.765 53.9459 292.64 58.3991 276.166Z" stroke="#181D27"/>
<path fill-rule="evenodd" clip-rule="evenodd" d="M65.6809 271.81C70.5799 260.365 80.8746 251.06 89.2281 242.276C96.2004 234.954 103.701 220.212 114.332 219.161C126.826 217.922 134.399 233.663 139.315 243.315C144.153 252.8 151.126 262.814 153.805 273.223C156.599 284.067 149.159 298.67 142.063 306.344C134.149 314.9 121.201 318.061 110.09 317.72C98.4575 317.373 87.7837 310.301 78.9736 302.967C69.5547 295.126 59.9837 285.097 65.6809 271.81Z" stroke="#181D27"/>
<path fill-rule="evenodd" clip-rule="evenodd" d="M72.438 269.656C77.1176 260.136 85.2291 252.083 92.7084 244.9C98.4802 239.355 106.997 229.926 115.324 229.695C124.485 229.44 132.249 237.354 135.891 245.467C139.481 253.469 143.263 263.501 143.801 272.28C144.968 291.397 121.208 312.811 103.367 311.068C86.4508 309.416 63.1077 288.622 72.438 269.656Z" stroke="#181D27"/>
<path fill-rule="evenodd" clip-rule="evenodd" d="M78.6864 268.606C85.1421 256.203 100.823 238.521 115.34 238.101C132.004 237.621 136.187 257.298 134.015 271.558C131.809 286.111 112.597 307.177 97.2777 304.33C82.3265 301.553 71.0355 283.316 78.6864 268.606Z" stroke="#181D27"/>
<path fill-rule="evenodd" clip-rule="evenodd" d="M85.2845 266.601C90.7503 256.216 102.414 243.245 114.579 242.852C129.074 242.387 128.8 259 125.513 269.34C122.095 280.075 107.042 298.411 94.3505 295.516C82.009 292.69 80.0465 276.554 85.2845 266.601Z" stroke="#181D27"/>
<path fill-rule="evenodd" clip-rule="evenodd" d="M91.0308 265.405C94.6386 257.995 103.668 248.63 112.252 248.33C122.744 247.97 120.705 261.146 117.994 267.506C114.771 275.074 103.971 288.223 94.9071 286.092C85.9833 283.994 88.0543 271.511 91.0308 265.405Z" stroke="#181D27"/>
<path fill-rule="evenodd" clip-rule="evenodd" d="M584.594 688.789C561.371 703.656 535.118 715.928 510.361 728.401C474.183 746.627 437.471 764.363 399.456 777.94C379.075 785.217 352.665 795.709 330.796 790.008C322.8 787.924 315.509 781.621 308.34 777.525C298.454 771.878 288.423 766.51 278.409 761.131C258.322 750.347 238.171 739.672 218.429 728.197C208.922 722.67 199.698 715.709 189.801 710.993C184.017 708.236 177.096 709.526 170.916 709.7C156.601 710.106 142.294 710.876 127.988 711.532C110.488 712.332 92.9492 713.183 75.4299 712.867C67.5283 712.723 48.1762 714.202 43.8263 707.021C41.486 703.154 47.0017 696.181 49.5587 692.954C54.2535 687.024 59.6495 681.68 64.9743 676.391C77.2885 664.158 90.3666 652.509 101.313 638.844C106.937 631.82 114.305 623.238 110.634 613.648C106.928 603.962 100.509 595.575 96.5921 585.923C92.0826 574.815 90.2127 563.255 88.0834 551.477C86.507 542.771 82.8356 535.058 79.3836 527.032C75.5696 518.161 71.6188 509.215 68.9706 499.86C67.2204 493.68 64.3956 482.563 70.5185 478.651C79.2183 473.088 95.5317 477.592 105.449 479.231C119.154 481.493 132.759 484.373 146.428 486.854C156.35 488.658 166.307 490.637 176.395 490.848C192.657 491.187 208.974 490.012 225.193 488.917C255.226 486.89 285.044 484.142 315.178 484.142C341.579 484.142 402.589 516.369 416.87 522.043C445.375 533.371 474.639 544.109 501.613 559.181C508.91 563.261 520.141 568.698 523.981 577.097C526.35 582.272 525.261 585.264 530.848 588.599C538.47 593.149 548.236 594.935 556.674 596.971C570.262 600.248 583.956 603.024 597.607 605.992C625.217 611.979 652.639 618.751 680.135 625.267C688.447 627.237 698.504 627.673 706.428 631.143C711.536 633.372 711.006 636.177 707.053 639.563C700.117 645.505 690.397 648.804 682.205 652.193C670.201 657.158 658.001 661.587 645.795 665.953C633.589 670.32 621.32 674.551 609.109 678.926C601.042 681.807 591.843 684.149 584.594 688.789Z" stroke="#181D27"/>
<path fill-rule="evenodd" clip-rule="evenodd" d="M565.484 685.519C540.919 700.416 513.651 712.284 487.363 723.863C453.72 738.691 419.315 752.588 383.867 761.857C363.054 767.296 338.497 773.301 317.231 767.064C309.644 764.839 303.976 759.837 297.473 755.422C290.06 750.384 282.362 745.768 274.664 741.223C258.817 731.87 242.803 722.836 226.622 714.121C218.052 709.486 208.617 703.28 198.935 701.672C191.237 700.392 182.492 702.244 174.76 702.783C160.835 703.753 146.913 704.752 132.983 705.602C116.908 706.58 100.788 707.484 84.6788 707.327C75.7006 707.24 60.2873 708.682 53.9379 702.56C48.3981 697.218 68.567 677.897 72.1138 674.226C83.1905 662.765 94.8402 651.851 105.15 639.595C111.243 632.368 118.661 623.578 121.23 613.998C123.417 605.834 119.197 596.532 116.705 588.986C113.589 579.533 111.074 569.734 107.454 560.48C104.229 552.235 99.0969 544.89 94.5892 537.395C89.6311 529.149 84.6103 520.769 80.9295 511.774C78.6743 506.239 74.9421 496.97 79.4241 491.694C84.6017 485.611 100.562 489.586 107.123 490.453C120.432 492.236 133.638 494.886 146.856 497.259C168.81 501.198 189.74 504.643 212.096 503.818C241.208 502.74 270.293 500.204 299.4 498.801C310.149 498.277 321.069 497.223 331.826 497.792C337.993 498.12 342.689 500.108 346.275 504.592C351.174 510.711 362.455 514.099 370.302 517.61C382.536 523.082 394.924 528.171 407.278 533.326C434.398 544.649 462.04 555.562 487.76 570.207C495.897 574.838 505.214 580.003 511.233 587.655C514.592 591.922 513.745 596.032 515.795 600.567C518.509 606.533 527.433 609.225 532.768 611.177C543.063 614.947 553.78 617.473 564.415 619.84C588.479 625.195 612.599 628.715 637.053 631.308C642.784 631.91 665.351 633.997 653.499 644.055C640.403 655.17 621.495 660.618 606.079 666.881C592.191 672.513 578.291 677.752 565.484 685.519Z" stroke="#181D27"/>
<path fill-rule="evenodd" clip-rule="evenodd" d="M531.535 682.764C508.445 695.87 482.865 705.648 457.997 715.001C427.819 726.351 396.886 736.469 365.235 742.136C345.353 745.693 323.433 748.426 303.685 742.515C290.199 738.48 279.767 727.572 267.922 720.068C256.077 712.563 243.752 705.518 231.06 699.646C223.182 696.002 214.708 692.331 205.943 692.812C184.63 693.979 163.344 696.76 142.009 698.11C127.895 699.012 113.752 699.755 99.5954 699.532C91.0585 699.4 79.3306 699.941 71.7727 695.202C63.4185 689.962 107.901 645.217 112.105 640.18C122.646 627.552 135.41 610.793 133.372 592.835C131.423 575.666 122.974 562.849 113.418 549.397C107.995 541.745 90.6047 521.303 97.0495 511.351C100.731 505.662 112.867 507.632 118.633 508.02C129.995 508.783 141.295 510.425 152.598 511.85C169.078 513.916 186.012 517.106 202.563 518.041C214.089 518.69 225.682 517.821 237.228 517.803C253.782 517.779 270.336 517.911 286.891 518.068C300.791 518.2 314.808 518.068 328.659 519.475C337.27 520.341 343.806 522.286 349.983 527.782C355.357 532.563 363.466 535.362 370.316 538.402C381.63 543.42 393.092 548.071 404.518 552.798C428.439 562.696 452.634 572.386 475.53 584.756C485.982 590.399 503.555 598.301 506.007 611.984C506.892 616.918 507.543 619.05 512.11 621.855C518.591 625.836 526.355 627.631 533.627 629.191C550.581 632.829 568.026 632.285 584.951 635.881C591.844 637.363 600.844 640.562 592.975 647.887C583.793 656.452 570.426 661.161 559.426 666.453C553.935 669.093 548.278 671.564 543.063 674.787C539.059 677.271 535.631 680.455 531.535 682.764Z" stroke="#181D27"/>
<path fill-rule="evenodd" clip-rule="evenodd" d="M487.802 678.672C466.469 689.317 443.301 697.056 420.549 704.033C395.278 711.773 369.397 718.183 343.174 720.911C325.067 722.801 305.775 723.358 288.201 717.575C277.087 713.916 269.553 706.222 259.989 699.769C245.555 690.016 229.939 682.289 212.599 684.169C193.158 686.273 173.654 687.851 154.086 688.904C142.283 689.54 130.434 690.016 118.616 689.573C111.144 689.296 101.518 688.829 95.0177 685.257C86.3204 680.474 118.989 644.079 123.061 638.775C133.161 625.619 140.564 611.816 144.89 595.517C148.418 582.217 141.211 571.762 133.776 561.813C129.154 555.635 114.219 540.095 118.895 532.073C121.46 527.648 129.912 527.877 134.452 527.651C143.103 527.223 151.792 527.669 160.444 527.865C173.219 528.167 186.818 526.096 199.484 527.763C227.557 531.452 255.558 534.646 283.804 537.175C299.375 538.567 315.039 539.833 330.47 542.519C336.01 543.483 341.732 544.505 346.981 546.687C350.358 548.088 352.199 550.475 355.049 552.434C368.636 561.759 386.373 566.557 401.675 572.533C422.019 580.478 442.472 588.299 462.274 597.684C472.69 602.621 487.237 608.293 494.404 618.368C496.57 621.412 495.647 623.847 497.009 626.774C498.576 630.149 503.338 631.156 506.413 632.096C513.392 634.233 542.604 637.464 529.142 649.998C522.719 655.969 514.535 659.799 507.293 664.492C504.672 666.192 502.116 667.901 499.93 670.194C496.274 674.04 492.672 676.234 487.802 678.672Z" stroke="#181D27"/>
<path fill-rule="evenodd" clip-rule="evenodd" d="M441.203 674.063C399.089 691.285 349.734 703.019 303.82 700.745C288.551 699.987 272.123 697.455 258.888 688.789C251.083 683.671 244.847 677.893 235.472 676.044C228.704 674.711 221.417 676.225 214.609 676.773C204.749 677.568 194.883 678.279 185.009 678.854C172.767 679.555 160.485 680.097 148.221 679.808C139.457 679.6 127.355 679.835 119.742 674.867C110.653 668.942 133.789 641.146 137.044 636.193C144.934 624.189 150.465 612.558 152.464 598.091C153.052 593.875 155.034 589.555 154.777 585.307C154.509 580.968 151.976 577.105 149.637 573.694C146.579 569.223 135.967 558.618 139.006 553.166C140.685 550.155 146.987 549.776 150.254 549.137C156.382 547.933 162.598 547.286 168.763 546.328C179.223 544.696 189.609 539.382 200.106 539.533C228.333 539.93 256.969 549.167 284.63 554.241C301.075 557.267 317.632 560.012 333.877 564.11C339.017 565.408 344.311 566.751 349.197 568.952C352.607 570.487 354.797 573.224 357.955 574.943C370.066 581.546 383.992 585.553 396.996 589.997C413.878 595.778 430.818 601.385 447.582 607.539C458.091 611.396 471.603 614.789 480.658 621.943C487.272 627.166 482.751 628.729 479.262 633.595C477.48 636.075 477.891 638.52 477.117 641.329C476.012 645.34 472.888 648.227 469.959 650.823C465.918 654.409 460.535 657.362 457.231 661.758C456.066 663.306 456.121 665.227 455.178 666.575C452.437 670.505 445.164 672.444 441.203 674.063Z" stroke="#181D27"/>
<path fill-rule="evenodd" clip-rule="evenodd" d="M396.427 667.927C362.247 678.755 324.216 684.92 288.087 682.059C275.516 681.062 262.869 678.746 251.159 673.659C245.831 671.352 241.832 668.78 235.994 668.641C222.449 668.322 208.861 669.439 195.318 669.707C185.627 669.9 175.887 669.969 166.218 669.147C159.753 668.599 151.01 667.943 145.714 663.759C138.018 657.666 151.911 636.953 154.739 631.231C159.425 621.74 164.074 611.19 162.216 600.209C161.646 596.85 160.636 593.884 160.505 590.459C160.38 587.517 160.731 584.8 159.741 581.987C158.519 578.499 153.08 573.087 154.95 569.876C156.224 567.683 160.004 567.581 162.518 566.879C166.596 565.741 170.577 564.248 174.421 562.416C178.469 560.476 181.915 557.479 186.108 555.877C192.915 553.281 200.535 553.037 207.689 553.048C236.237 553.097 265.146 559.039 292.97 565.253C307.458 568.488 322.027 571.936 336.108 576.843C340.384 578.333 345.23 579.83 348.99 582.583C351.336 584.297 352.926 586.444 355.591 587.733C378.358 598.739 404.679 602.826 428.848 610.774C435.139 612.843 470.004 623.298 451.775 633.131C440.701 639.107 429 641.824 418.895 649.998C415.816 652.483 413.764 654.54 412.561 658.332C411.768 660.856 413.675 659.576 411.013 662.214C407.784 665.385 400.409 666.665 396.427 667.927Z" stroke="#181D27"/>
<path fill-rule="evenodd" clip-rule="evenodd" d="M360.888 661.525C320.871 670.363 278.493 670.783 237.844 662.949C227.597 660.976 216.932 661.447 206.559 660.946C196.481 660.465 178.562 661.465 171.242 653.288C165.934 647.36 171.693 634.762 173.685 628.132C176.224 619.684 178.442 610.957 174.274 602.753C171.833 597.948 168.489 593.374 165.871 588.615C164.619 586.341 162.041 582.858 163.115 580.705C164.893 577.152 173.211 575.657 177.247 573.981C190.147 568.627 203.807 567.26 217.598 567.298C243.072 567.368 268.677 571.044 293.665 576.029C305.161 578.323 316.818 580.771 327.905 584.759C334.179 587.014 338.807 591.365 344.798 593.945C364.089 602.257 384.815 606.699 404.438 614.3C410.117 616.501 431.332 623.828 420.645 632.468C410.297 640.831 395.205 639.837 384.446 647.705C383.229 648.606 381.722 649.684 381.016 651.141C380.599 652.012 381.334 653.669 381.016 654.165C377.712 659.549 365.967 660.405 360.888 661.525Z" stroke="#181D27"/>
<path fill-rule="evenodd" clip-rule="evenodd" d="M334.962 655.684C314.432 658.655 293.451 659.392 272.575 659.579C261.164 659.682 248.628 660.449 237.463 657.399C230.604 655.521 223.98 653.879 216.91 652.695C209.303 651.421 197.055 650.494 192.422 643.589C188.962 638.429 191.333 627.822 191.459 621.547C191.593 614.666 190.256 609.563 185.652 604.639C182.757 601.538 169.478 590.282 171.012 587.036C172.473 583.944 181.726 583.47 185.727 582.667C198.372 580.119 211.186 579.231 224.048 579.37C243.97 579.581 263.965 581.725 283.575 585.409C291.682 586.939 300.061 588.525 307.805 591.583C313.02 593.645 317.37 597.302 322.551 599.434C337.388 605.548 353.077 609.699 367.966 615.925C372.744 617.927 388.312 623.256 384.58 631.469C381.468 638.326 370.883 640.412 365.682 645.008C356.835 652.846 346.244 654.054 334.962 655.684Z" stroke="#181D27"/>
<path fill-rule="evenodd" clip-rule="evenodd" d="M331.926 654.061C315.64 656.028 298.976 656.888 282.451 656.93C271.787 656.957 260.536 657.111 250.071 654.581C244.814 653.312 240.246 650.344 235.271 648.226C230.148 646.049 223.078 643.619 220.864 638.626C218.784 633.935 219.561 627.089 217.733 621.432C216.108 616.413 212.707 613.312 209.044 609.919C206.71 607.751 194.725 598.364 196.111 596.292C197.597 594.073 204.795 594.253 208.54 593.946C218.86 593.086 229.216 592.812 239.563 593.125C253.686 593.582 267.916 594.858 281.794 597.745C291.639 599.79 299.064 604.662 308.243 608.235C320.134 612.876 332.452 616.545 344.229 621.622C350.098 624.151 358.784 627.405 361.79 633.935C362.945 636.437 364.067 642.801 362.78 645.303C361.235 648.311 355.483 649.586 352.768 650.359C345.965 652.287 338.847 653.225 331.926 654.061Z" stroke="#181D27"/>
</svg>
