<svg width="559" height="33" viewBox="0 0 559 33" fill="none" xmlns="http://www.w3.org/2000/svg">
<path fill-rule="evenodd" clip-rule="evenodd" d="M12.4771 18.2561C8.79595 18.1943 5.12021 18.112 1.44547 18.014C0.727522 17.9945 0.12943 18.5621 0.110553 19.2814C0.0916764 20.0007 0.65924 20.6006 1.37719 20.6202C4.68507 20.7053 7.99361 20.7799 11.3002 20.844C11.4847 20.9706 11.8552 21.156 12.4898 21.2642C32.2669 24.5112 53.6447 22.0542 73.8703 20.6725C92.8311 20.2651 111.801 19.5762 130.777 18.7363C128.516 18.9528 126.255 19.1641 123.994 19.3649C123.523 19.408 122.304 19.5237 122.137 19.5653C121.178 19.8228 121.153 20.646 121.156 20.8551C121.158 20.9596 121.232 22.113 122.528 22.1484C136.442 22.5164 150.355 21.2763 164.207 20.1524C169.359 19.7334 174.507 19.3037 179.657 18.8638C181.448 18.7062 186.109 18.4857 186.752 18.3647C187.443 18.2311 187.712 17.7941 187.815 17.456C198.99 16.778 210.178 16.1842 221.368 15.6689C223.559 15.6672 225.746 15.6706 227.934 15.674C251.778 15.7337 275.615 15.8818 299.458 15.837C286.174 16.4489 272.858 17.1109 259.595 18.027C256.878 18.2144 254.166 18.4753 251.451 18.6837C249.967 18.793 246.13 18.8465 245.59 19.021C244.785 19.2883 244.658 19.9068 244.637 20.2135C244.624 20.4007 244.684 21.4434 246.036 21.7017C271.127 26.5135 296.729 27.536 322.176 28.862C328.87 29.2094 335.562 29.5828 342.252 29.9769C326.266 30.2498 310.121 29.6668 294.162 29.2785C294.018 29.144 293.81 29.016 293.512 28.9291C293.074 28.7969 291.719 28.6271 289.25 28.444C288.718 28.4049 288.236 28.6928 288.003 29.1374C284.211 29.0633 280.429 29.0055 276.665 28.9802C264.339 28.896 252.013 29.2502 239.688 29.2235L236.899 29.1923L236.317 29.1867C234.181 29.15 231.568 29.0934 229.831 29.0561C228.829 29.0289 226.222 29.0197 225.862 29.0281C224.774 29.0634 224.588 30.0696 224.58 30.1161C224.576 30.142 224.591 31.61 226.079 31.6472C227.075 31.674 230.833 31.7251 236.102 31.7887C237.426 31.8103 238.588 31.8267 239.28 31.8289L239.813 31.8315C256.662 32.0102 283.662 32.1975 291.308 31.8171C316.18 32.3755 341.559 33.5615 366.123 31.4115C366.928 31.3374 367.282 31.078 367.351 31.0198C367.732 30.6837 367.811 30.3024 367.796 29.9725C367.787 29.7631 367.682 28.9158 366.663 28.7205C365.946 28.5809 360.783 28.4823 358.795 28.3611C346.636 27.6191 334.476 26.8927 322.31 26.26C300.374 25.1156 278.321 24.2091 256.58 20.8738C257.645 20.7848 258.709 20.7012 259.774 20.628C273.222 19.6976 286.725 19.0265 300.192 18.4106C342.011 16.4965 384.802 19.0612 426.429 15.5165C427.282 15.4454 427.664 15.1878 427.737 15.1298C428.14 14.79 428.22 14.3929 428.204 14.0578C428.194 13.8536 428.081 12.9953 427.042 12.8039C426.185 12.645 420.012 12.5501 417.635 12.4198C408.145 11.8998 398.647 11.3741 389.147 11.078C373.466 10.5924 357.751 10.3029 342.04 10.2331C340.699 9.92853 339.309 9.64704 337.874 9.3887C348.469 9.20625 359.058 9.11215 369.643 9.13793C413.034 9.22949 456.414 10.0252 499.786 11.1389C517.75 11.6025 535.968 13.0692 553.938 12.771C554.575 12.7593 555.985 12.8908 556.679 12.8775C557.076 12.8715 557.367 12.8012 557.506 12.7474C558.085 12.5126 558.273 12.0913 558.335 11.7611C558.388 11.5034 558.489 10.6588 557.418 10.1835C534.403 -0.0410775 497.843 3.35602 473.898 2.31879C376.125 -1.91522 278.284 0.628595 180.599 5.8085C141.543 7.87742 102.586 9.97863 63.61 13.2848C49.7786 14.4571 35.929 15.4037 22.1681 17.2592C20.372 17.5052 16.5747 17.7544 14.1418 18.0174C13.4869 18.0906 12.9167 18.1744 12.4771 18.2561ZM550.074 10.2019C527.361 3.03523 495.38 5.85687 473.787 4.92219C376.097 0.693494 278.339 3.23214 180.737 8.4069C141.709 10.4776 102.779 12.5754 63.8301 15.8833C53.9219 16.7203 44.0035 17.4469 34.1167 18.4732C47.3202 18.4984 60.5288 18.3517 73.7563 18.0704C76.509 17.88 79.2426 17.7092 81.9477 17.5784C115.172 15.9583 148.47 14.3848 181.767 13.5943C192.782 13.0051 203.797 12.4003 214.82 11.8013C236.159 9.90569 265.289 7.22124 292.088 6.76405C301.305 6.60888 310.249 6.71819 318.512 7.21757C335.571 6.75177 352.614 6.49382 369.648 6.53293C413.06 6.62061 456.46 7.42278 499.857 8.53806C516.508 8.96528 533.376 10.2625 550.074 10.2019ZM341.78 12.8376C331.713 12.7977 321.649 12.8521 311.598 13.0013C307.125 13.0719 302.652 13.1476 298.177 13.2337C300.62 13.2325 303.064 13.2261 305.507 13.2144C316.976 13.1763 328.472 13.1556 339.941 12.8982C340.511 12.8822 341.275 12.8995 342.131 12.9226L341.796 12.8438L341.78 12.8376ZM403.795 14.291C398.888 14.052 393.978 13.8339 389.068 13.6834C376.322 13.2905 363.555 13.0215 350.784 12.8985C351.09 13.0955 351.252 13.2834 351.326 13.403C351.544 13.7405 351.578 14.0715 351.528 14.3712C351.498 14.5572 351.428 14.7774 351.27 14.9866C368.81 14.9743 386.369 14.9998 403.795 14.291ZM324.5 10.2559C322.578 10.0867 320.608 9.94048 318.597 9.81777C308.624 10.092 298.651 10.4289 288.688 10.8186C296.308 10.6558 303.935 10.5143 311.558 10.3987C315.87 10.3335 320.185 10.2843 324.5 10.2559Z" fill="#E04F16"/>
</svg>
