<svg width="36" height="36" viewBox="0 0 36 36" fill="none" xmlns="http://www.w3.org/2000/svg">
<path d="M32.8619 0.5H27.1721V8.74468H35.4977V2.82479C35.5 2.82479 35.0863 0.724835 32.8619 0.5Z" fill="#1967D2"/>
<path d="M27.1744 35.4616V35.4819V35.4999L35.5 27.2552H35.4254L27.1744 35.4616Z" fill="#1967D2"/>
<path d="M35.4993 27.2549V27.181L35.4254 27.2549H35.4993Z" fill="#FBBC05"/>
<path d="M35.5 8.74484H27.1744V27.1813H35.5V8.74484Z" fill="#FBBC05"/>
<path d="M35.4254 27.2552H27.1744V35.4617L35.4254 27.2552Z" fill="#EA4335"/>
<path d="M27.1744 27.2549H35.4254L35.5 27.181H27.1744V27.2549Z" fill="#EA4335"/>
<path d="M27.1541 35.482H27.1742V35.4619L27.1541 35.482Z" fill="#34A853"/>
<path d="M8.63794 27.181V35.4819H27.1541L27.1744 27.181H8.63794Z" fill="#34A853"/>
<path d="M27.1742 27.2552V27.181L27.1541 35.4819L27.1742 35.4617V27.2552Z" fill="#34A853"/>
<path d="M0.5 27.181V32.9525C0.574598 34.8254 2.60004 35.4819 2.60004 35.4819H8.63796V27.181H0.5Z" fill="#188038"/>
<path d="M8.63796 8.74481H27.1744V0.500122H2.83514C2.83514 0.500122 0.649196 0.724957 0.5 3.0475V27.1812H8.63796V8.74481Z" fill="#4285F4"/>
<path d="M14.7023 23.4493C14.2782 23.4493 13.8692 23.3941 13.4755 23.2836C13.0918 23.1731 12.7384 23.0074 12.4153 22.7865C12.0922 22.5555 11.8044 22.2693 11.552 21.9279C11.3096 21.5864 11.1228 21.1897 10.9916 20.7378L12.8545 19.9997C12.9858 20.5018 13.2079 20.8834 13.5209 21.1445C13.8339 21.3956 14.2277 21.5211 14.7023 21.5211C14.9143 21.5211 15.1162 21.491 15.3081 21.4307C15.4999 21.3604 15.6665 21.265 15.8079 21.1445C15.9493 21.024 16.0603 20.8834 16.1411 20.7227C16.232 20.552 16.2774 20.3612 16.2774 20.1503C16.2774 19.7084 16.1108 19.362 15.7776 19.1109C15.4545 18.8598 15.0052 18.7343 14.4296 18.7343H13.536V16.9417H14.3539C14.5559 16.9417 14.7527 16.9166 14.9446 16.8664C15.1364 16.8162 15.303 16.7408 15.4444 16.6404C15.5959 16.5299 15.712 16.3944 15.7927 16.2337C15.8836 16.063 15.9291 15.8671 15.9291 15.6462C15.9291 15.3048 15.8079 15.0286 15.5656 14.8177C15.3232 14.5967 14.9951 14.4863 14.5811 14.4863C14.1368 14.4863 13.7935 14.6068 13.5512 14.8478C13.319 15.0788 13.1574 15.3399 13.0665 15.6311L11.2491 14.893C11.3399 14.6419 11.4762 14.3859 11.658 14.1247C11.8397 13.8536 12.0669 13.6126 12.3395 13.4017C12.6223 13.1807 12.9504 13.005 13.324 12.8744C13.6976 12.7338 14.1267 12.6635 14.6114 12.6635C15.1061 12.6635 15.5555 12.7338 15.9593 12.8744C16.3733 13.015 16.7267 13.2109 17.0195 13.4619C17.3124 13.703 17.5395 13.9942 17.7011 14.3356C17.8626 14.667 17.9434 15.0286 17.9434 15.4202C17.9434 15.7215 17.903 15.9927 17.8223 16.2337C17.7516 16.4747 17.6557 16.6906 17.5345 16.8814C17.4133 17.0723 17.272 17.238 17.1104 17.3786C16.959 17.5091 16.8025 17.6146 16.6409 17.6949V17.8154C17.1256 18.0062 17.5244 18.3125 17.8374 18.7343C18.1605 19.1561 18.3221 19.6884 18.3221 20.3311C18.3221 20.783 18.2362 21.1998 18.0646 21.5814C17.8929 21.953 17.6456 22.2793 17.3225 22.5605C17.0094 22.8417 16.6308 23.0576 16.1865 23.2083C15.7423 23.369 15.2475 23.4493 14.7023 23.4493Z" fill="#4285F4"/>
<path d="M21.9389 23.2083V15.2244L20.1063 15.9927L19.3793 14.3206L22.4236 12.9046H23.923V23.2083H21.9389Z" fill="#4285F4"/>
</svg>
