<svg width="56" height="50" viewBox="0 0 56 50" fill="none" xmlns="http://www.w3.org/2000/svg">
<rect x="17.5" y="0.5" width="35" height="49" rx="2" fill="#1066B5"/>
<rect x="17.5" y="0.5" width="35" height="49" rx="2" fill="url(#paint0_linear_26449_2320)"/>
<rect x="17.5" y="5.75" width="17.5" height="17.5" fill="#32A9E7"/>
<rect x="17.5" y="23.25" width="17.5" height="17.5" fill="#167EB4"/>
<rect x="35" y="23.25" width="17.5" height="17.5" fill="#32A9E7"/>
<rect x="35" y="5.75" width="17.5" height="17.5" fill="#58D9FD"/>
<mask id="mask0_26449_2320" style="mask-type:alpha" maskUnits="userSpaceOnUse" x="14" y="21" width="42" height="29">
<path d="M14 21.5H54C55.1046 21.5 56 22.3954 56 23.5V47.5C56 48.6046 55.1046 49.5 54 49.5H16C14.8954 49.5 14 48.6046 14 47.5V21.5Z" fill="url(#paint1_linear_26449_2320)"/>
</mask>
<g mask="url(#mask0_26449_2320)">
<path d="M56 21.5V28.5H52.5V21.5H56Z" fill="#135298"/>
<path d="M56 49.5V25L12.25 49.5H56Z" fill="url(#paint2_linear_26449_2320)"/>
<path d="M14 49.5V25L57.75 49.5H14Z" fill="url(#paint3_linear_26449_2320)"/>
</g>
<path d="M14 15.75C14 14.0931 15.3431 12.75 17 12.75H32C33.6569 12.75 35 14.0931 35 15.75V41.25C35 42.9069 33.6569 44.25 32 44.25H14V15.75Z" fill="black" fill-opacity="0.3"/>
<rect y="9.25" width="31.5" height="31.5" rx="2" fill="url(#paint4_linear_26449_2320)"/>
<path d="M24.5 25.1212V24.8303C24.5 19.7888 20.8726 16.25 15.7777 16.25C10.6551 16.25 7 19.813 7 24.8788V25.1697C7 30.2112 10.6274 33.75 15.75 33.75C20.8449 33.75 24.5 30.187 24.5 25.1212ZM20.3742 25.1697C20.3742 28.5145 18.4913 30.5263 15.7777 30.5263C13.0641 30.5263 11.1535 28.4661 11.1535 25.1212V24.8303C11.1535 21.4855 13.0364 19.4737 15.75 19.4737C18.4359 19.4737 20.3742 21.5339 20.3742 24.8788V25.1697Z" fill="white"/>
<defs>
<linearGradient id="paint0_linear_26449_2320" x1="17.5" y1="25" x2="52.5" y2="25" gradientUnits="userSpaceOnUse">
<stop stop-color="#064484"/>
<stop offset="1" stop-color="#0F65B5"/>
</linearGradient>
<linearGradient id="paint1_linear_26449_2320" x1="14" y1="43.8462" x2="56" y2="43.8462" gradientUnits="userSpaceOnUse">
<stop stop-color="#1B366F"/>
<stop offset="1" stop-color="#2657B0"/>
</linearGradient>
<linearGradient id="paint2_linear_26449_2320" x1="56" y1="37.25" x2="14" y2="37.25" gradientUnits="userSpaceOnUse">
<stop stop-color="#44DCFD"/>
<stop offset="0.453125" stop-color="#259ED0"/>
</linearGradient>
<linearGradient id="paint3_linear_26449_2320" x1="14" y1="37.25" x2="56" y2="37.25" gradientUnits="userSpaceOnUse">
<stop stop-color="#259ED0"/>
<stop offset="1" stop-color="#44DCFD"/>
</linearGradient>
<linearGradient id="paint4_linear_26449_2320" x1="0" y1="25" x2="31.5" y2="25" gradientUnits="userSpaceOnUse">
<stop stop-color="#064484"/>
<stop offset="1" stop-color="#0F65B5"/>
</linearGradient>
</defs>
</svg>
