<svg width="46" height="46" viewBox="0 0 46 46" fill="none" xmlns="http://www.w3.org/2000/svg">
<path d="M41.3754 21.2496C43.7914 21.2496 45.75 19.291 45.75 16.875C45.75 14.459 43.7912 12.5004 41.3752 12.5004C38.9589 12.5004 37 14.4591 37 16.8754V21.2496H41.3754ZM29.125 21.2496C31.5412 21.2496 33.5 19.2909 33.5 16.8746V4.62536C33.5 2.20912 31.5412 0.250366 29.125 0.250366C26.7088 0.250366 24.75 2.20912 24.75 4.62537V16.8746C24.75 19.2909 26.7088 21.2496 29.125 21.2496Z" fill="#2EB67D"/>
<path d="M4.62463 24.7504C2.20859 24.7504 0.250002 26.709 0.250002 29.125C0.250002 31.541 2.20877 33.4996 4.62481 33.4996C7.04106 33.4996 9 31.5409 9 29.1246V24.7504H4.62463ZM16.875 24.7504C14.4588 24.7504 12.5 26.7091 12.5 29.1254V41.3746C12.5 43.7909 14.4588 45.7496 16.875 45.7496C19.2912 45.7496 21.25 43.7909 21.25 41.3746V29.1254C21.25 26.7091 19.2912 24.7504 16.875 24.7504Z" fill="#E01E5A"/>
<path d="M24.7503 41.3754C24.7503 43.7914 26.7088 45.75 29.1249 45.75C31.5409 45.75 33.4995 43.7912 33.4995 41.3752C33.4995 38.9589 31.5408 37 29.1245 37L24.7503 37L24.7503 41.3754ZM24.7503 29.125C24.7503 31.5412 26.709 33.5 29.1253 33.5L41.3745 33.5C43.7908 33.5 45.7495 31.5412 45.7495 29.125C45.7495 26.7088 43.7908 24.75 41.3745 24.75L29.1253 24.75C26.709 24.75 24.7503 26.7088 24.7503 29.125Z" fill="#ECB22E"/>
<path d="M21.2496 4.62463C21.2496 2.20859 19.291 0.250003 16.875 0.250003C14.459 0.250003 12.5004 2.20878 12.5004 4.62481C12.5004 7.04106 14.4591 9 16.8754 9L21.2496 9L21.2496 4.62463ZM21.2496 16.875C21.2496 14.4588 19.2909 12.5 16.8746 12.5L4.62536 12.5C2.20912 12.5 0.250367 14.4588 0.250366 16.875C0.250366 19.2912 2.20912 21.25 4.62537 21.25L16.8746 21.25C19.2909 21.25 21.2496 19.2912 21.2496 16.875Z" fill="#36C5F0"/>
</svg>
